<svg xmlns="http://www.w3.org/2000/svg" style="isolation:isolate" viewBox="0 0 2200 850" width="2200pt" height="850pt"><defs><clipPath id="a"><path d="M0 0h2200v850H0z"/></clipPath></defs><g clip-path="url(#a)"><path d="M604.295 190.751c0-6.91-.01-13.82 0-20.74 0-3.05.86-3.91 3.88-3.92 7.51-.04 14.25 1.8 19.61 7.52 3.72 3.97 5.11 8.87 5.73 13.96 1.11 9.08 7.58 13.74 15.72 14.53 5.91.57 11.27-.46 16.25-3.75 2.48-1.64 3.88-3.87 4.6-6.66 2.76-10.66 13.91-19.89 24.9-21.1 9.08-1 17.02 1.09 23.42 7.75 3.49 3.64 5.3 8.35 7.31 12.89 2.17 4.91 5.42 8.68 11.06 9.09 4.47.33 8.5-1.54 12.34-3.76 6.12-3.54 9.9-8.86 12.32-15.39 3.19-8.59 9.94-13.06 18.5-15.03 10.43-2.39 22.73 4.52 25.89 16.15 2.52 9.28 9.31 13.68 17.72 16.15 6.55 1.92 11.69-.65 14.83-6.8 2.18-4.26 3.7-8.86 6.63-12.74 4.41-5.84 10.36-8.99 17.55-9.72 3.88-.4 4.78.64 4.79 4.55.01 11.72 0 23.43 0 35.15 0 2.11.02 4.21-.01 6.32-.03 2.09-1.09 3.36-3.2 3.48-12.03.66-19.37 7.38-23.66 18.15-.9 2.26-1.99 4.45-3.37 6.49-2.93 4.31-7.16 6-12.04 5.09-6.42-1.2-11.93-4.35-16.15-9.48-1.48-1.79-2.15-3.98-2.78-6.16-3.1-10.7-11.13-17.04-22.05-17.5-5.9-.25-11.02 2.28-15.69 5.94-3.95 3.11-6.11 7.15-7.91 11.69-4.03 10.15-11.99 15.71-22.54 16.98-5.27.64-9.17-2.78-11.52-7.53-2.09-4.22-3.69-8.67-6.49-12.53-4.1-5.65-9.81-8.49-16.54-9.59-10.19-1.67-18.69 1.93-25.97 8.71-3.01 2.8-5.73 6.17-6.61 10.27-1.56 7.34-6.41 10.64-13.21 12.08-6.81 1.44-13.14.61-18.83-3.68-3.9-2.95-4.94-7.32-5.58-11.73-1.8-12.44-8.14-16.49-18.18-19.11-2.41-.63-4.91-1.04-7.44-1.12-2.42-.08-3.29-1.62-3.29-3.9.02-7.01.01-14.01.01-21z" fill="#52926C"/><path d="M814.625 416.121c0-6.91-.01-13.82 0-20.74 0-3.05.86-3.91 3.88-3.92 7.51-.04 14.25 1.8 19.61 7.52 3.72 3.97 5.11 8.87 5.73 13.96 1.11 9.08 7.58 13.74 15.72 14.53 5.91.57 11.27-.46 16.25-3.75 2.48-1.64 3.88-3.87 4.6-6.66 2.76-10.66 13.91-19.89 24.9-21.1 9.08-1 17.02 1.09 23.42 7.75 3.49 3.64 5.3 8.35 7.31 12.89 2.17 4.91 5.42 8.68 11.06 9.09 4.47.33 8.5-1.54 12.34-3.76 6.12-3.54 9.9-8.86 12.32-15.39 3.19-8.59 9.94-13.06 18.5-15.03 10.431-2.39 22.731 4.52 25.891 16.15 2.52 9.28 9.31 13.68 17.72 16.15 6.55 1.92 11.69-.65 14.83-6.8 2.18-4.26 3.7-8.86 6.63-12.74 4.41-5.84 10.36-8.99 17.55-9.72 3.88-.4 4.78.64 4.79 4.55.01 11.72 0 23.43 0 35.15 0 2.11.02 4.21-.01 6.32-.03 2.09-1.09 3.36-3.2 3.48-12.03.66-19.37 7.38-23.66 18.15-.9 2.26-1.99 4.45-3.37 6.49-2.93 4.31-7.16 6-12.04 5.09-6.42-1.2-11.93-4.35-16.15-9.48-1.48-1.79-2.15-3.98-2.78-6.16-3.1-10.7-11.13-17.04-22.051-17.5-5.9-.25-11.02 2.28-15.69 5.94-3.95 3.11-6.11 7.15-7.91 11.69-4.03 10.15-11.99 15.71-22.54 16.98-5.27.64-9.17-2.78-11.52-7.53-2.09-4.22-3.69-8.67-6.49-12.53-4.1-5.65-9.81-8.49-16.54-9.59-10.19-1.67-18.69 1.93-25.97 8.71-3.01 2.8-5.73 6.17-6.61 10.27-1.56 7.34-6.41 10.64-13.21 12.08-6.81 1.44-13.14.61-18.83-3.68-3.9-2.95-4.94-7.32-5.58-11.73-1.8-12.44-8.14-16.49-18.18-19.11-2.41-.63-4.91-1.04-7.44-1.12-2.42-.08-3.29-1.62-3.29-3.9.03-7 .01-14 .01-21zM438.635 629.731c0-6.91-.01-13.82 0-20.74 0-3.05.86-3.91 3.88-3.92 7.51-.04 14.25 1.8 19.61 7.52 3.72 3.97 5.11 8.87 5.73 13.96 1.11 9.08 7.58 13.74 15.72 14.53 5.91.57 11.27-.46 16.25-3.75 2.48-1.64 3.88-3.87 4.6-6.66 2.76-10.66 13.91-19.89 24.9-21.1 9.08-1 17.02 1.09 23.42 7.75 3.49 3.64 5.3 8.35 7.31 12.89 2.17 4.91 5.42 8.68 11.06 9.09 4.47.33 8.5-1.54 12.34-3.76 6.12-3.54 9.9-8.86 12.32-15.39 3.19-8.59 9.94-13.06 18.5-15.03 10.43-2.39 22.73 4.52 25.89 16.15 2.52 9.28 9.31 13.68 17.72 16.15 6.55 1.92 11.69-.65 14.83-6.8 2.18-4.26 3.7-8.86 6.63-12.74 4.41-5.84 10.36-8.99 17.55-9.72 3.88-.4 4.78.64 4.79 4.55.01 11.72 0 23.43 0 35.15 0 2.11.02 4.21-.01 6.32-.03 2.09-1.09 3.36-3.2 3.48-12.03.66-19.37 7.38-23.66 18.15-.9 2.26-1.99 4.45-3.37 6.49-2.93 4.31-7.16 6-12.04 5.09-6.42-1.2-11.93-4.35-16.15-9.48-1.48-1.79-2.15-3.98-2.78-6.16-3.1-10.7-11.13-17.04-22.05-17.5-5.9-.25-11.02 2.28-15.69 5.94-3.95 3.11-6.11 7.15-7.91 11.69-4.03 10.15-11.99 15.71-22.54 16.98-5.27.64-9.17-2.78-11.52-7.53-2.09-4.22-3.69-8.67-6.49-12.53-4.1-5.65-9.81-8.49-16.54-9.59-10.19-1.67-18.69 1.93-25.97 8.71-3.01 2.8-5.73 6.17-6.61 10.27-1.56 7.34-6.41 10.64-13.21 12.08-6.81 1.44-13.14.61-18.83-3.68-3.9-2.95-4.94-7.32-5.58-11.73-1.8-12.44-8.14-16.49-18.18-19.11-2.41-.63-4.91-1.04-7.44-1.12-2.42-.08-3.29-1.62-3.29-3.9.03-7.01.01-14.01.01-21zM34.184 492.841c0-6.91-.01-13.82 0-20.74 0-3.05.86-3.91 3.88-3.92 7.51-.04 14.25 1.8 19.61 7.52 3.72 3.97 5.11 8.87 5.73 13.96 1.11 9.08 7.58 13.74 15.72 14.53 5.91.57 11.27-.46 16.25-3.75 2.48-1.64 3.88-3.87 4.6-6.66 2.76-10.66 13.91-19.89 24.9-21.1 9.08-1 17.02 1.09 23.42 7.75 3.49 3.64 5.3 8.35 7.31 12.89 2.17 4.91 5.42 8.68 11.06 9.09 4.47.33 8.5-1.54 12.34-3.76 6.12-3.54 9.9-8.86 12.32-15.39 3.19-8.59 9.94-13.06 18.5-15.03 10.43-2.39 22.73 4.52 25.89 16.15 2.52 9.28 9.31 13.68 17.72 16.15 6.55 1.92 11.69-.65 14.83-6.8 2.18-4.26 3.7-8.86 6.63-12.74 4.41-5.84 10.36-8.99 17.55-9.72 3.88-.4 4.78.64 4.79 4.55.01 11.72 0 23.43 0 35.15 0 2.11.02 4.21-.01 6.32-.03 2.09-1.09 3.36-3.2 3.48-12.03.66-19.37 7.38-23.66 18.15-.9 2.26-1.99 4.45-3.37 6.49-2.93 4.31-7.16 6-12.04 5.09-6.42-1.2-11.93-4.35-16.15-9.48-1.48-1.79-2.15-3.98-2.78-6.16-3.1-10.7-11.13-17.04-22.05-17.5-5.9-.25-11.02 2.28-15.69 5.94-3.95 3.11-6.11 7.15-7.91 11.69-4.03 10.15-11.99 15.71-22.54 16.98-5.27.64-9.17-2.78-11.52-7.53-2.09-4.22-3.69-8.67-6.49-12.53-4.1-5.65-9.81-8.49-16.54-9.59-10.19-1.67-18.69 1.93-25.97 8.71-3.01 2.8-5.73 6.17-6.61 10.27-1.56 7.34-6.41 10.64-13.21 12.08-6.81 1.44-13.14.61-18.83-3.68-3.9-2.95-4.94-7.32-5.58-11.73-1.8-12.44-8.14-16.49-18.18-19.11-2.41-.63-4.91-1.04-7.44-1.12-2.42-.08-3.29-1.62-3.29-3.9.03-7.01.01-14.01.01-21zM245.894 46.081c0-6.91-.01-13.82 0-20.74 0-3.05.86-3.91 3.88-3.92 7.51-.04 14.251 1.8 19.611 7.52 3.72 3.97 5.11 8.87 5.73 13.96 1.11 9.08 7.58 13.74 15.72 14.53 5.91.57 11.27-.46 16.25-3.75 2.48-1.64 3.88-3.87 4.6-6.66 2.76-10.66 13.91-19.89 24.9-21.1 9.08-1 17.02 1.09 23.42 7.75 3.49 3.64 5.3 8.35 7.31 12.89 2.17 4.91 5.42 8.68 11.06 9.09 4.47.33 8.5-1.54 12.34-3.76 6.12-3.54 9.9-8.86 12.32-15.39 3.19-8.59 9.94-13.06 18.5-15.03 10.43-2.39 22.73 4.52 25.89 16.15 2.52 9.28 9.31 13.68 17.72 16.15 6.55 1.92 11.69-.65 14.83-6.8 2.18-4.26 3.7-8.86 6.63-12.74 4.41-5.84 10.36-8.99 17.55-9.72 3.88-.4 4.78.64 4.79 4.55.01 11.72 0 23.43 0 35.15 0 2.11.02 4.21-.01 6.32-.03 2.09-1.091 3.36-3.2 3.48-12.03.66-19.37 7.38-23.66 18.15-.9 2.26-1.99 4.45-3.37 6.49-2.93 4.31-7.16 6-12.04 5.09-6.42-1.2-11.93-4.35-16.15-9.48-1.48-1.79-2.15-3.98-2.78-6.16-3.1-10.7-11.13-17.04-22.05-17.5-5.9-.25-11.02 2.28-15.69 5.94-3.95 3.11-6.11 7.15-7.91 11.69-4.03 10.15-11.99 15.71-22.54 16.98-5.27.64-9.17-2.78-11.52-7.53-2.09-4.22-3.69-8.68-6.49-12.53-4.1-5.65-9.81-8.49-16.54-9.59-10.19-1.67-18.69 1.93-25.97 8.71-3.01 2.8-5.73 6.17-6.61 10.27-1.56 7.34-6.41 10.64-13.21 12.08-6.81 1.44-13.14.61-18.83-3.68-3.9-2.95-4.94-7.32-5.58-11.73-1.8-12.44-8.14-16.49-18.18-19.11-2.41-.63-4.91-1.04-7.44-1.12-2.42-.08-3.29-1.62-3.29-3.9.03-7 .009-14 .009-21zM1116.896 126.081c0-6.91-.01-13.82 0-20.74 0-3.05.86-3.91 3.88-3.92 7.51-.04 14.25 1.8 19.61 7.52 3.72 3.97 5.11 8.87 5.73 13.96 1.11 9.08 7.58 13.74 15.72 14.53 5.91.57 11.27-.46 16.25-3.75 2.48-1.64 3.88-3.87 4.6-6.66 2.76-10.66 13.91-19.89 24.9-21.1 9.08-1 17.02 1.09 23.42 7.75 3.49 3.64 5.3 8.35 7.31 12.89 2.17 4.91 5.42 8.68 11.06 9.09 4.47.33 8.5-1.54 12.34-3.76 6.12-3.54 9.9-8.86 12.32-15.39 3.19-8.59 9.94-13.06 18.5-15.03 10.43-2.39 22.73 4.52 25.89 16.15 2.52 9.28 9.31 13.68 17.72 16.15 6.55 1.92 11.69-.65 14.83-6.8 2.18-4.26 3.7-8.86 6.63-12.74 4.41-5.84 10.36-8.99 17.55-9.72 3.88-.4 4.78.64 4.79 4.55.01 11.72 0 23.43 0 35.15 0 2.11.02 4.21-.01 6.32-.03 2.09-1.09 3.36-3.2 3.48-12.03.66-19.37 7.38-23.66 18.15-.9 2.26-1.99 4.45-3.37 6.49-2.93 4.31-7.16 6-12.04 5.09-6.42-1.2-11.93-4.35-16.15-9.48-1.48-1.79-2.15-3.98-2.78-6.16-3.1-10.7-11.13-17.04-22.05-17.5-5.9-.25-11.02 2.28-15.69 5.94-3.95 3.11-6.11 7.15-7.91 11.69-4.03 10.15-11.99 15.71-22.54 16.98-5.27.64-9.17-2.78-11.52-7.53-2.09-4.22-3.69-8.68-6.49-12.53-4.1-5.65-9.81-8.49-16.54-9.59-10.19-1.67-18.69 1.93-25.97 8.71-3.01 2.8-5.73 6.17-6.61 10.27-1.56 7.34-6.41 10.64-13.21 12.08-6.81 1.44-13.14.61-18.83-3.68-3.9-2.95-4.94-7.32-5.58-11.73-1.8-12.44-8.14-16.49-18.18-19.11-2.41-.63-4.91-1.04-7.44-1.12-2.42-.08-3.29-1.62-3.29-3.9.03-7 .01-14 .01-21z" fill="#E89FC0"/><path d="M438.635 629.731c0-6.91-.01-13.82 0-20.74 0-3.05.86-3.91 3.88-3.92 7.51-.04 14.25 1.8 19.61 7.52 3.72 3.97 5.11 8.87 5.73 13.96 1.11 9.08 7.58 13.74 15.72 14.53 5.91.57 11.27-.46 16.25-3.75 2.48-1.64 3.88-3.87 4.6-6.66 2.76-10.66 13.91-19.89 24.9-21.1 9.08-1 17.02 1.09 23.42 7.75 3.49 3.64 5.3 8.35 7.31 12.89 2.17 4.91 5.42 8.68 11.06 9.09 4.47.33 8.5-1.54 12.34-3.76 6.12-3.54 9.9-8.86 12.32-15.39 3.19-8.59 9.94-13.06 18.5-15.03 10.43-2.39 22.73 4.52 25.89 16.15 2.52 9.28 9.31 13.68 17.72 16.15 6.55 1.92 11.69-.65 14.83-6.8 2.18-4.26 3.7-8.86 6.63-12.74 4.41-5.84 10.36-8.99 17.55-9.72 3.88-.4 4.78.64 4.79 4.55.01 11.72 0 23.43 0 35.15 0 2.11.02 4.21-.01 6.32-.03 2.09-1.09 3.36-3.2 3.48-12.03.66-19.37 7.38-23.66 18.15-.9 2.26-1.99 4.45-3.37 6.49-2.93 4.31-7.16 6-12.04 5.09-6.42-1.2-11.93-4.35-16.15-9.48-1.48-1.79-2.15-3.98-2.78-6.16-3.1-10.7-11.13-17.04-22.05-17.5-5.9-.25-11.02 2.28-15.69 5.94-3.95 3.11-6.11 7.15-7.91 11.69-4.03 10.15-11.99 15.71-22.54 16.98-5.27.64-9.17-2.78-11.52-7.53-2.09-4.22-3.69-8.67-6.49-12.53-4.1-5.65-9.81-8.49-16.54-9.59-10.19-1.67-18.69 1.93-25.97 8.71-3.01 2.8-5.73 6.17-6.61 10.27-1.56 7.34-6.41 10.64-13.21 12.08-6.81 1.44-13.14.61-18.83-3.68-3.9-2.95-4.94-7.32-5.58-11.73-1.8-12.44-8.14-16.49-18.18-19.11-2.41-.63-4.91-1.04-7.44-1.12-2.42-.08-3.29-1.62-3.29-3.9.03-7.01.01-14.01.01-21zM1008.606 748.391c0-6.91-.01-13.82 0-20.74 0-3.05.86-3.91 3.88-3.92 7.51-.04 14.25 1.8 19.61 7.52 3.72 3.97 5.11 8.87 5.73 13.96 1.11 9.08 7.58 13.74 15.72 14.53 5.91.57 11.27-.46 16.25-3.75 2.48-1.64 3.88-3.87 4.6-6.66 2.76-10.66 13.91-19.89 24.9-21.1 9.08-1 17.02 1.09 23.42 7.75 3.49 3.64 5.3 8.35 7.31 12.89 2.17 4.91 5.42 8.68 11.06 9.09 4.47.33 8.5-1.54 12.34-3.76 6.12-3.54 9.9-8.86 12.32-15.39 3.19-8.59 9.94-13.06 18.5-15.03 10.43-2.39 22.73 4.52 25.89 16.15 2.52 9.28 9.31 13.68 17.72 16.15 6.55 1.92 11.69-.65 14.83-6.8 2.18-4.26 3.7-8.86 6.63-12.74 4.41-5.84 10.36-8.99 17.55-9.72 3.88-.4 4.78.64 4.79 4.55.01 11.72 0 23.43 0 35.15 0 2.11.02 4.21-.01 6.32-.03 2.09-1.09 3.36-3.2 3.48-12.03.66-19.37 7.38-23.66 18.15-.9 2.26-1.99 4.45-3.37 6.49-2.93 4.31-7.16 6-12.04 5.09-6.42-1.2-11.93-4.35-16.15-9.48-1.48-1.79-2.15-3.98-2.78-6.16-3.1-10.7-11.13-17.04-22.05-17.5-5.9-.25-11.02 2.28-15.69 5.94-3.95 3.11-6.11 7.15-7.91 11.69-4.03 10.15-11.99 15.71-22.54 16.98-5.27.64-9.17-2.78-11.52-7.53-2.09-4.22-3.69-8.67-6.49-12.53-4.1-5.65-9.81-8.49-16.54-9.59-10.19-1.67-18.69 1.93-25.97 8.71-3.01 2.8-5.73 6.17-6.61 10.27-1.56 7.34-6.41 10.64-13.21 12.08-6.81 1.44-13.14.61-18.83-3.68-3.9-2.95-4.94-7.32-5.58-11.73-1.8-12.44-8.14-16.49-18.18-19.11-2.41-.63-4.91-1.04-7.44-1.12-2.42-.08-3.29-1.62-3.29-3.9.03-7 .01-14 .01-21zM374.315 390.561c-5.94 7.31-7.99 17.66-7.03 28.94.53 6.17 1.63 12.18 3.21 18.13 2.09 7.88 6.57 14.27 12.27 19.96 7.47 7.47 16 13 26.4 15.53 11.74 2.85 21.79.19 29.56-9.13 4.12-4.94 7-10.75 7.73-17.29.81-7.3-2.15-13.13-7.61-17.79-2.95-2.51-6.39-4.39-9.22-7.06-5.45-5.15-7.93-11.79-9.43-18.89-.98-4.61-1.43-9.33-2.77-13.87-3.41-11.58-12.82-16.54-24.39-12.87-7.26 2.29-12.97 6.42-18.72 14.34z" fill="#E89FC0"/><path d="M121.775 283.191c-5.94 7.31-7.989 17.66-7.029 28.94.53 6.17 1.63 12.18 3.21 18.13 2.09 7.88 6.57 14.27 12.27 19.96 7.47 7.47 16 13 26.4 15.53 11.74 2.85 21.789.19 29.559-9.13 4.12-4.94 7-10.75 7.73-17.29.81-7.3-2.15-13.13-7.61-17.79-2.95-2.51-6.389-4.39-9.219-7.06-5.45-5.15-7.931-11.79-9.431-18.89-.98-4.61-1.429-9.33-2.769-13.87-3.41-11.58-12.82-16.54-24.39-12.87-7.26 2.3-12.971 6.42-18.721 14.34zM1003.546 225.071c-5.941 7.31-7.991 17.66-7.031 28.94.53 6.17 1.63 12.18 3.21 18.13 2.091 7.88 6.571 14.27 12.271 19.96 7.47 7.47 16 13 26.4 15.53 11.74 2.85 21.79.19 29.56-9.13 4.12-4.94 7-10.75 7.73-17.29.81-7.3-2.15-13.13-7.61-17.79-2.95-2.51-6.39-4.39-9.22-7.06-5.45-5.15-7.93-11.79-9.43-18.89-.98-4.61-1.43-9.33-2.77-13.87-3.41-11.58-12.82-16.54-24.39-12.87-7.26 2.29-12.97 6.42-18.72 14.34z" fill="#52926C"/><path d="M1124.776 545.661c-5.94 7.31-7.99 17.66-7.03 28.94.53 6.17 1.63 12.18 3.21 18.13 2.09 7.88 6.57 14.27 12.27 19.96 7.47 7.47 16 13 26.4 15.53 11.74 2.85 21.79.19 29.56-9.13 4.12-4.94 7-10.75 7.73-17.29.81-7.3-2.15-13.13-7.61-17.79-2.95-2.51-6.39-4.39-9.22-7.06-5.45-5.15-7.93-11.79-9.43-18.89-.98-4.61-1.43-9.33-2.77-13.87-3.41-11.58-12.82-16.54-24.39-12.87-7.26 2.29-12.98 6.42-18.72 14.34z" fill="#E89FC0"/><path d="M237.885 670.461c-5.94 7.31-7.99 17.66-7.03 28.94.53 6.17 1.63 12.18 3.21 18.13 2.09 7.88 6.57 14.27 12.27 19.96 7.47 7.47 16 13 26.4 15.53 11.74 2.85 21.79.19 29.56-9.13 4.12-4.94 7-10.75 7.73-17.29.81-7.3-2.15-13.13-7.61-17.79-2.95-2.51-6.39-4.39-9.22-7.06-5.45-5.15-7.93-11.79-9.43-18.89-.98-4.61-1.43-9.33-2.77-13.87-3.41-11.58-12.82-16.54-24.39-12.87-7.26 2.29-12.97 6.42-18.72 14.34z" fill="#52926C"/><path d="M949.245 104.781c-.03 4.4-2.78 7.06-6.45 6.39-2.31-.42-3.41-1.82-3.41-3.97.01-2.1-.73-3.7-2.15-5.16-1.23-1.26-2.58-2.65-1.39-4.62 1.16-1.93 3.07-2.54 5.2-2.33 4.38.46 8.22 5.05 8.2 9.69zM986.144 82.311c-3.19.02-4.75-1.2-4.79-4.07-.03-2.11-.82-3.69-2.18-5.15-1.14-1.22-2.45-2.47-1.49-4.39.99-1.97 2.85-2.64 4.83-2.56 3.62.15 6.08 2.39 7.66 5.38 1.48 2.8 1.47 5.83-.21 8.65-.88 1.46-2.23 2.25-3.82 2.14zM957.135 143.341c3.72.09 6.07 2.37 7.66 5.33 1.55 2.88 1.53 6.03-.34 8.86-1.31 1.98-3.31 2.38-5.57 1.8-2.16-.56-3-2.1-2.9-4.13.1-2.04-.81-3.52-2.12-4.91-1.14-1.21-2.55-2.39-1.55-4.35.99-1.96 2.73-2.6 4.82-2.6zM952.275 130.451c-.03 4.11-2.28 6.65-5.74 6.47-2.7-.14-4.09-1.33-4.12-4.07-.02-2.12-.8-3.74-2.2-5.17-1.3-1.32-2.48-2.77-1.3-4.66 1.19-1.9 3.17-2.47 5.3-2.22 4.31.51 8.09 5.11 8.06 9.65zM985.105 102.881c3.62.08 5.88 2.35 7.52 5.15 1.67 2.86 1.63 5.98-.09 8.87-1.22 2.05-3.21 2.57-5.48 2.04-2.22-.52-3.19-2.03-3.12-4.23.06-1.89-.68-3.4-1.99-4.71-1.26-1.26-2.62-2.6-1.67-4.59.93-1.96 2.75-2.55 4.83-2.53zM972.694 83.391c.03 4.77-2.73 7.39-6.73 6.42-1.89-.46-3-1.65-2.93-3.54.08-2.28-.74-4.05-2.31-5.61-1.2-1.2-2.42-2.5-1.35-4.4 1.12-1.99 3.03-2.64 5.13-2.47 4.47.37 8.15 4.77 8.19 9.6zM910.014 140.732c.04 4.79-2.84 7.549-6.7 6.449-1.94-.55-3.11-1.76-3-3.79.13-2.31-.87-4.01-2.4-5.57-1.06-1.08-2.14-2.209-1.34-3.969.78-1.72 2.21-2.46 3.98-2.63 4.97-.49 9.41 3.99 9.46 9.51zM922.485 60.921c-.03 4.6-2.94 7.33-6.69 6.34-1.96-.52-3.09-1.67-3-3.77.09-1.88-.57-3.45-1.83-4.81-1.43-1.55-3.17-3.06-1.64-5.46 1.2-1.89 4.62-2.55 7.15-1.49 3.5 1.45 6.04 5.35 6.01 9.19zM952.965 66.221c.03 4.75-2.77 7.39-6.75 6.39-1.88-.47-3-1.66-2.91-3.56.11-2.3-.76-4.04-2.32-5.6-1.21-1.2-2.41-2.51-1.34-4.4 1.12-1.99 3.03-2.63 5.14-2.46 4.48.38 8.15 4.79 8.18 9.63zM937.145 158.031c.01 4.66-3.09 7.53-6.89 6.37-1.69-.51-2.83-1.53-2.79-3.43.06-2.35-.79-4.24-2.5-5.83-1.24-1.16-2.08-2.57-1.27-4.28.79-1.66 2.33-2.34 4.13-2.44 4.87-.26 9.31 4.33 9.32 9.61zM973.075 112.181c-.03 4.38-2.47 6.91-6.21 6.44-2.11-.27-3.51-1.36-3.45-3.6.06-2.28-.75-4.09-2.35-5.63-1.26-1.22-2.32-2.6-1.38-4.45.89-1.75 2.54-2.39 4.4-2.46 4.65-.18 9.03 4.57 8.99 9.7zM927.054 88.011c-.03 4.41-2.43 6.85-6.25 6.36-2.13-.28-3.47-1.39-3.4-3.63.06-2.18-.69-3.94-2.2-5.44-1.29-1.29-2.58-2.69-1.49-4.63 1.16-2.07 3.21-2.66 5.44-2.4 4.27.51 7.93 5.09 7.9 9.74zM996.366 143.931c.01 4.36-2.49 7.06-6.13 6.53-2.16-.31-3.66-1.41-3.54-3.81.12-2.31-.9-4.04-2.47-5.58-1.13-1.11-2.04-2.37-1.38-4.03.74-1.85 2.37-2.56 4.22-2.72 4.75-.39 9.28 4.33 9.3 9.61zM885.104 126.681c-.01 4.73-3.02 7.43-6.89 6.26-1.76-.53-2.84-1.63-2.73-3.45.13-2.41-.87-4.22-2.48-5.84-1.11-1.11-2.1-2.3-1.35-4.01.76-1.72 2.27-2.42 4.04-2.59 4.94-.45 9.43 4.15 9.41 9.63zM905.295 73.731c.04 4.66-2.59 7.26-6.54 6.5-2.03-.39-3.19-1.54-3.13-3.62.06-2.18-.74-3.93-2.23-5.43-1.29-1.3-2.58-2.71-1.43-4.62 1.2-1.99 3.18-2.69 5.46-2.34 4.38.68 7.83 4.89 7.87 9.51zM918.435 106.831c3.41-.1 5.63 2.27 7.29 5.06 1.63 2.74 1.69 5.83.06 8.68-1.15 2.01-3.01 2.81-5.38 2.3-2.37-.51-3.45-2-3.36-4.32.08-1.94-.76-3.37-2.03-4.71-1.15-1.2-2.53-2.41-1.65-4.38.91-2.06 2.69-2.62 5.07-2.63zM898.964 108.281c0 4.35-2.4 6.8-6.2 6.38-2.28-.25-3.59-1.55-3.57-3.77.03-2.19-.71-3.86-2.22-5.38-1.24-1.25-2.6-2.61-1.38-4.6 1.18-1.92 3.08-2.57 5.2-2.34 4.48.49 8.17 4.96 8.17 9.71zM434.643 202.371c.02 4.33-2.82 7.18-6.45 6.48-2.07-.4-3.44-1.6-3.39-3.73.05-2.38-.84-4.19-2.47-5.81-1.01-1-2.04-2.1-1.34-3.75.77-1.82 2.26-2.65 4.13-2.81 4.83-.43 9.5 4.31 9.52 9.62zM371.853 234.671c3.7.13 6.04 2.4 7.64 5.35 1.57 2.89 1.51 6.01-.34 8.85-1.25 1.92-3.19 2.34-5.32 1.85-2.21-.5-3.26-2.02-3.16-4.21.09-2.03-.8-3.53-2.13-4.91-1.18-1.22-2.48-2.47-1.52-4.38.98-1.92 2.74-2.57 4.83-2.55zM446.913 209.961c2.51.2 4.84 2.37 6.38 5.25 1.55 2.89 1.54 6.02-.3 8.86-1.3 2-3.31 2.4-5.56 1.84-2.15-.54-3.02-2.06-2.94-4.11.08-2.02-.79-3.53-2.1-4.93-1.13-1.21-2.57-2.38-1.58-4.35 1.04-2.05 2.87-2.68 6.1-2.56zM386.583 283.391c-3.16-.04-4.72-1.26-4.75-4-.02-2.21-.86-3.85-2.29-5.37-1.03-1.09-2.16-2.16-1.51-3.94.67-1.83 2.21-2.48 3.87-2.82 2.92-.6 6.97 1.89 8.75 5.24 1.55 2.91 1.18 7.45-.78 9.48-.97 1.03-2.18 1.51-3.29 1.41zM403.963 196.781c.06 4.64-2.2 7.07-6.15 6.63-2.25-.25-3.59-1.44-3.5-3.77.08-2.19-.77-3.88-2.26-5.38-1.28-1.28-2.55-2.68-1.37-4.61 1.22-2 3.22-2.63 5.45-2.33 4.19.55 7.78 4.93 7.83 9.46zM386.774 209.911c0 4.47-2.64 7.23-6.3 6.51-2-.4-3.48-1.47-3.34-3.73.14-2.31-.83-4.01-2.38-5.57-1.12-1.14-2.27-2.42-1.43-4.21.88-1.87 2.56-2.55 4.53-2.6 4.73-.12 8.91 4.38 8.92 9.6zM442.225 295.561c-3.18-.01-4.671-1.22-4.721-4.18-.04-2.12-.86-3.73-2.26-5.15-1.26-1.27-2.239-2.66-1.279-4.47 1.03-1.93 2.93-2.52 4.94-2.4 6.15.38 10.43 8.28 7.45 13.67-.92 1.68-2.31 2.65-4.13 2.53zM433.754 266.421c.04 4.72-2.939 7.55-6.779 6.49-1.85-.51-2.971-1.58-2.921-3.57.06-2.26-.789-4.08-2.409-5.61-1.23-1.15-2.15-2.53-1.38-4.26.8-1.79 2.42-2.46 4.33-2.53 4.79-.19 9.119 4.29 9.159 9.48zM408.424 252.401c.04 4.32-2.46 7.05-6.1 6.6-2.18-.27-3.63-1.33-3.61-3.74.01-2.24-.78-4.1-2.42-5.61-1.27-1.17-2.12-2.55-1.36-4.25.8-1.79 2.49-2.44 4.34-2.55 4.62-.27 9.1 4.44 9.15 9.55zM477.835 280.081c0 4.74-2.88 7.38-6.8 6.31-1.88-.51-2.93-1.67-2.84-3.6.1-2.18-.7-3.9-2.19-5.41-1.25-1.27-2.59-2.59-1.46-4.59 1.13-2.01 3.07-2.53 5.17-2.35 4.52.4 8.12 4.74 8.12 9.64zM418.614 293.981c.04 4.64-2.29 7.08-6.25 6.57-2.15-.28-3.47-1.4-3.4-3.63.07-2.18-.69-3.93-2.2-5.43-1.28-1.28-2.61-2.68-1.47-4.62 1.19-2.02 3.17-2.71 5.44-2.37 4.36.64 7.84 4.88 7.88 9.48zM408.544 224.101c-.02 4.8-3.16 7.5-7.11 6.16-1.64-.55-2.62-1.66-2.52-3.33.15-2.5-.93-4.34-2.58-6.02-1.03-1.04-1.94-2.2-1.28-3.79.72-1.71 2.16-2.5 3.94-2.68 5.06-.51 9.57 4.06 9.55 9.66zM430.723 240.911c-.04 4.43-2.84 7.19-6.51 6.37-1.91-.42-3.24-1.47-3.18-3.63.07-2.25-.75-4.1-2.38-5.62-1.23-1.15-2.17-2.53-1.44-4.25.77-1.8 2.44-2.48 4.31-2.59 4.77-.29 9.25 4.46 9.2 9.72zM472.693 211.811c.05 4.68-2.97 7.52-6.81 6.45-1.86-.52-2.95-1.61-2.9-3.58.06-2.26-.8-4.07-2.42-5.6-1.23-1.15-2.13-2.55-1.35-4.26.81-1.78 2.43-2.45 4.34-2.52 4.73-.17 9.08 4.35 9.14 9.51zM475.244 248.511c.03 4.42-2.29 6.91-6.09 6.54-2.26-.22-3.64-1.34-3.59-3.71.05-2.17-.76-3.93-2.26-5.42-1.31-1.3-2.54-2.72-1.39-4.63 1.21-2 3.2-2.66 5.47-2.3 4.36.67 7.83 4.92 7.86 9.52zM454.564 248.331c-.02 4.74-3 7.38-6.93 6.2-1.76-.53-2.83-1.63-2.72-3.45.14-2.42-.9-4.21-2.49-5.83-1.1-1.11-2.07-2.32-1.31-4.02.77-1.72 2.26-2.41 4.05-2.56 5.01-.42 9.42 4.12 9.4 9.66zM366.614 262.711c.02 4.5-2.28 6.93-6.11 6.45-2.24-.28-3.63-1.52-3.56-3.81.07-2.21-.77-3.87-2.26-5.39-1.17-1.19-2.5-2.48-1.41-4.4 1.18-2.08 3.14-2.74 5.38-2.5 4.3.46 7.94 4.95 7.96 9.65z" fill="#E89FC0"/><path d="M678.643 393.371c.02 4.33-2.82 7.18-6.45 6.48-2.07-.4-3.44-1.6-3.39-3.73.05-2.38-.84-4.19-2.47-5.81-1.01-1-2.04-2.1-1.34-3.75.77-1.82 2.26-2.65 4.13-2.81 4.83-.43 9.5 4.31 9.52 9.62zM615.853 425.671c3.7.13 6.04 2.4 7.64 5.35 1.57 2.89 1.51 6.01-.34 8.85-1.25 1.92-3.19 2.34-5.32 1.85-2.21-.5-3.26-2.02-3.16-4.21.09-2.03-.8-3.53-2.13-4.91-1.18-1.22-2.48-2.47-1.52-4.38.98-1.92 2.74-2.57 4.83-2.55zM690.913 400.961c2.51.2 4.84 2.37 6.38 5.25 1.55 2.89 1.54 6.02-.3 8.86-1.3 2-3.31 2.4-5.56 1.84-2.15-.54-3.02-2.06-2.94-4.11.08-2.02-.79-3.53-2.1-4.93-1.13-1.21-2.57-2.38-1.58-4.35 1.04-2.05 2.87-2.68 6.1-2.56zM630.583 474.391c-3.16-.04-4.72-1.26-4.75-4-.02-2.21-.86-3.85-2.29-5.37-1.03-1.09-2.16-2.16-1.51-3.94.67-1.83 2.21-2.48 3.87-2.82 2.92-.6 6.97 1.89 8.75 5.24 1.55 2.91 1.18 7.45-.78 9.48-.97 1.03-2.18 1.51-3.29 1.41zM647.963 387.781c.06 4.64-2.2 7.07-6.15 6.63-2.25-.25-3.59-1.44-3.5-3.77.08-2.19-.77-3.88-2.26-5.38-1.28-1.28-2.55-2.68-1.37-4.61 1.22-2 3.22-2.63 5.45-2.33 4.19.55 7.78 4.93 7.83 9.46zM630.774 400.911c0 4.47-2.64 7.23-6.3 6.51-2-.4-3.48-1.47-3.34-3.73.14-2.31-.83-4.01-2.38-5.57-1.12-1.14-2.27-2.42-1.43-4.21.88-1.87 2.56-2.55 4.53-2.6 4.73-.12 8.91 4.38 8.92 9.6zM686.225 486.561c-3.18-.01-4.671-1.22-4.721-4.18-.04-2.12-.86-3.73-2.26-5.15-1.26-1.27-2.239-2.66-1.279-4.47 1.03-1.93 2.93-2.52 4.94-2.4 6.15.38 10.43 8.28 7.45 13.67-.92 1.68-2.31 2.65-4.13 2.53zM677.754 457.421c.04 4.72-2.939 7.55-6.779 6.49-1.85-.51-2.971-1.58-2.921-3.57.06-2.26-.789-4.08-2.409-5.61-1.23-1.15-2.15-2.53-1.38-4.26.8-1.79 2.42-2.46 4.33-2.53 4.79-.19 9.119 4.29 9.159 9.48zM652.424 443.401c.04 4.32-2.46 7.05-6.1 6.6-2.18-.27-3.63-1.33-3.61-3.74.01-2.24-.78-4.1-2.42-5.61-1.27-1.17-2.12-2.55-1.36-4.25.8-1.79 2.49-2.44 4.34-2.55 4.62-.27 9.1 4.44 9.15 9.55zM721.835 471.081c0 4.74-2.88 7.38-6.8 6.31-1.88-.51-2.93-1.67-2.84-3.6.1-2.18-.7-3.9-2.19-5.41-1.25-1.27-2.59-2.59-1.46-4.59 1.13-2.01 3.07-2.53 5.17-2.35 4.52.4 8.12 4.74 8.12 9.64zM662.614 484.981c.04 4.64-2.29 7.08-6.25 6.57-2.15-.28-3.47-1.4-3.4-3.63.07-2.18-.69-3.93-2.2-5.43-1.28-1.28-2.61-2.68-1.47-4.62 1.19-2.02 3.17-2.71 5.44-2.37 4.36.64 7.84 4.88 7.88 9.48zM652.544 415.101c-.02 4.8-3.16 7.5-7.11 6.16-1.64-.55-2.62-1.66-2.52-3.33.15-2.5-.93-4.34-2.58-6.02-1.03-1.04-1.94-2.2-1.28-3.79.72-1.71 2.16-2.5 3.94-2.68 5.06-.51 9.57 4.06 9.55 9.66zM674.723 431.911c-.04 4.43-2.84 7.19-6.51 6.37-1.91-.42-3.24-1.47-3.18-3.63.07-2.25-.75-4.1-2.38-5.62-1.23-1.15-2.17-2.53-1.44-4.25.77-1.8 2.44-2.48 4.31-2.59 4.77-.29 9.25 4.46 9.2 9.72zM716.693 402.811c.05 4.68-2.97 7.52-6.81 6.45-1.86-.52-2.95-1.61-2.9-3.58.06-2.26-.8-4.07-2.42-5.6-1.23-1.15-2.13-2.55-1.35-4.26.81-1.78 2.43-2.45 4.34-2.52 4.73-.17 9.08 4.35 9.14 9.51zM719.244 439.511c.03 4.42-2.29 6.91-6.09 6.54-2.26-.22-3.64-1.34-3.59-3.71.05-2.17-.76-3.93-2.26-5.42-1.31-1.3-2.54-2.72-1.39-4.63 1.21-2 3.2-2.66 5.47-2.3 4.36.67 7.83 4.92 7.86 9.52zM698.564 439.331c-.02 4.74-3 7.38-6.93 6.2-1.76-.53-2.83-1.63-2.72-3.45.14-2.42-.9-4.21-2.49-5.83-1.1-1.11-2.07-2.32-1.31-4.02.77-1.72 2.26-2.41 4.05-2.56 5.01-.42 9.42 4.12 9.4 9.66zM610.614 453.711c.02 4.5-2.28 6.93-6.11 6.45-2.24-.28-3.63-1.52-3.56-3.81.07-2.21-.77-3.87-2.26-5.39-1.17-1.19-2.5-2.48-1.41-4.4 1.18-2.08 3.14-2.74 5.38-2.5 4.3.46 7.94 4.95 7.96 9.65zM872.424 620.001c.02 4.33-2.82 7.18-6.45 6.48-2.07-.4-3.44-1.6-3.39-3.73.05-2.38-.84-4.19-2.47-5.81-1.01-1-2.04-2.1-1.34-3.75.77-1.82 2.26-2.65 4.13-2.81 4.83-.43 9.5 4.31 9.52 9.62zM809.634 652.301c3.7.13 6.04 2.4 7.64 5.35 1.57 2.89 1.51 6.01-.34 8.85-1.25 1.92-3.19 2.34-5.32 1.86-2.21-.5-3.26-2.02-3.16-4.21.09-2.03-.8-3.53-2.13-4.91-1.18-1.22-2.48-2.47-1.52-4.38.98-1.93 2.74-2.58 4.83-2.56zM884.685 627.591c2.51.2 4.84 2.37 6.38 5.25 1.55 2.89 1.54 6.02-.3 8.86-1.3 2-3.31 2.4-5.56 1.84-2.15-.54-3.02-2.06-2.94-4.11.08-2.02-.79-3.53-2.1-4.93-1.13-1.21-2.57-2.38-1.58-4.35 1.05-2.05 2.88-2.68 6.1-2.56zM824.364 701.021c-3.16-.04-4.72-1.26-4.75-4-.02-2.21-.86-3.85-2.29-5.37-1.03-1.09-2.16-2.16-1.51-3.94.67-1.83 2.21-2.48 3.87-2.82 2.92-.6 6.97 1.89 8.75 5.24 1.55 2.91 1.18 7.45-.78 9.48-.97 1.03-2.18 1.51-3.29 1.41zM841.744 614.401c.06 4.64-2.2 7.07-6.15 6.63-2.25-.25-3.59-1.44-3.5-3.77.08-2.19-.77-3.88-2.26-5.38-1.28-1.28-2.55-2.68-1.37-4.61 1.22-2 3.22-2.63 5.45-2.33 4.19.56 7.78 4.94 7.83 9.46zM824.555 627.541c0 4.48-2.64 7.23-6.3 6.51-2-.4-3.48-1.47-3.34-3.73.14-2.31-.83-4.01-2.38-5.57-1.12-1.14-2.27-2.42-1.43-4.21.88-1.87 2.56-2.55 4.53-2.6 4.73-.12 8.91 4.38 8.92 9.6zM880.006 713.191c-3.18-.01-4.67-1.22-4.72-4.18-.04-2.12-.86-3.73-2.26-5.15-1.26-1.27-2.24-2.66-1.28-4.47 1.03-1.93 2.93-2.52 4.94-2.4 6.15.38 10.43 8.28 7.45 13.67-.92 1.68-2.31 2.65-4.13 2.53zM871.536 684.041c.04 4.72-2.94 7.55-6.78 6.49-1.85-.51-2.97-1.58-2.92-3.57.06-2.26-.79-4.08-2.41-5.61-1.23-1.15-2.15-2.53-1.38-4.26.8-1.79 2.42-2.46 4.33-2.53 4.79-.18 9.12 4.3 9.16 9.48zM846.205 670.031c.04 4.32-2.46 7.05-6.1 6.6-2.18-.27-3.63-1.33-3.61-3.74.01-2.24-.78-4.1-2.42-5.61-1.27-1.17-2.12-2.55-1.36-4.25.8-1.79 2.49-2.44 4.34-2.55 4.62-.27 9.1 4.44 9.15 9.55zM915.616 697.711c0 4.74-2.88 7.38-6.8 6.31-1.88-.51-2.93-1.67-2.84-3.6.1-2.18-.7-3.9-2.19-5.41-1.25-1.27-2.59-2.59-1.46-4.59 1.13-2.01 3.07-2.53 5.17-2.35 4.52.4 8.12 4.74 8.12 9.64zM856.395 711.611c.04 4.64-2.29 7.08-6.25 6.57-2.15-.28-3.47-1.4-3.4-3.63.07-2.18-.69-3.93-2.2-5.43-1.28-1.28-2.61-2.68-1.47-4.62 1.19-2.02 3.17-2.71 5.44-2.37 4.36.64 7.84 4.88 7.88 9.48zM846.315 641.731c-.02 4.8-3.16 7.5-7.11 6.16-1.64-.55-2.62-1.66-2.52-3.33.15-2.5-.93-4.34-2.58-6.02-1.03-1.04-1.94-2.2-1.28-3.79.72-1.71 2.16-2.5 3.94-2.68 5.07-.51 9.58 4.06 9.55 9.66zM868.504 658.541c-.04 4.43-2.84 7.19-6.51 6.37-1.91-.42-3.24-1.47-3.18-3.63.07-2.25-.75-4.1-2.38-5.62-1.23-1.15-2.17-2.53-1.44-4.25.77-1.8 2.44-2.48 4.31-2.59 4.77-.29 9.25 4.46 9.2 9.72zM910.474 629.441c.05 4.68-2.97 7.52-6.81 6.45-1.86-.52-2.95-1.61-2.9-3.58.06-2.26-.8-4.07-2.42-5.6-1.23-1.15-2.13-2.55-1.35-4.26.81-1.78 2.43-2.45 4.34-2.52 4.73-.17 9.08 4.35 9.14 9.51zM913.025 666.141c.03 4.42-2.29 6.91-6.09 6.54-2.26-.22-3.64-1.34-3.59-3.71.05-2.17-.76-3.93-2.26-5.42-1.31-1.3-2.54-2.72-1.39-4.63 1.21-2 3.2-2.66 5.47-2.3 4.36.67 7.83 4.92 7.86 9.52zM892.345 665.961c-.02 4.74-3 7.38-6.93 6.2-1.76-.53-2.83-1.63-2.72-3.45.14-2.41-.9-4.21-2.49-5.83-1.1-1.11-2.07-2.32-1.31-4.02.77-1.72 2.26-2.41 4.05-2.56 5.01-.42 9.42 4.12 9.4 9.66zM804.395 680.341c.02 4.5-2.28 6.93-6.11 6.45-2.24-.28-3.63-1.52-3.56-3.81.07-2.21-.77-3.87-2.26-5.39-1.17-1.19-2.5-2.48-1.41-4.4 1.18-2.08 3.14-2.74 5.38-2.5 4.29.46 7.94 4.95 7.96 9.65zM144.415 95.361c.02 4.33-2.82 7.18-6.45 6.48-2.07-.4-3.44-1.6-3.39-3.73.05-2.38-.84-4.19-2.47-5.81-1.01-1-2.04-2.1-1.34-3.75.77-1.82 2.26-2.65 4.13-2.81 4.83-.42 9.5 4.32 9.52 9.62zM81.625 127.671c3.7.13 6.04 2.4 7.64 5.35 1.57 2.89 1.51 6.01-.34 8.85-1.25 1.92-3.19 2.34-5.32 1.86-2.21-.5-3.26-2.02-3.16-4.21.09-2.03-.8-3.53-2.13-4.91-1.18-1.22-2.48-2.47-1.52-4.38.98-1.93 2.74-2.58 4.83-2.56zM156.685 102.962c2.51.2 4.84 2.37 6.38 5.25 1.55 2.89 1.54 6.02-.3 8.86-1.3 2-3.31 2.4-5.56 1.84-2.15-.54-3.02-2.06-2.94-4.11.08-2.02-.79-3.531-2.1-4.931-1.13-1.21-2.57-2.38-1.58-4.35 1.04-2.05 2.87-2.679 6.1-2.559zM96.355 176.391c-3.16-.04-4.72-1.26-4.75-4-.02-2.21-.86-3.85-2.29-5.37-1.03-1.09-2.16-2.16-1.51-3.94.67-1.83 2.21-2.48 3.87-2.82 2.92-.6 6.97 1.89 8.75 5.24 1.55 2.91 1.18 7.45-.78 9.48-.97 1.02-2.18 1.51-3.29 1.41zM113.735 89.771c.06 4.64-2.2 7.07-6.15 6.63-2.25-.25-3.59-1.44-3.5-3.77.08-2.19-.77-3.88-2.26-5.38-1.28-1.28-2.55-2.68-1.37-4.61 1.22-2 3.22-2.63 5.45-2.33 4.19.55 7.78 4.94 7.83 9.46zM96.545 102.912c0 4.47-2.639 7.23-6.299 6.51-2-.4-3.481-1.47-3.341-3.73.14-2.31-.83-4.011-2.38-5.571-1.12-1.14-2.27-2.419-1.43-4.209.88-1.87 2.561-2.55 4.531-2.6 4.73-.13 8.919 4.38 8.919 9.6zM152.006 188.561c-3.18-.01-4.67-1.22-4.72-4.18-.04-2.12-.86-3.73-2.26-5.15-1.26-1.27-2.24-2.66-1.28-4.47 1.03-1.93 2.93-2.52 4.94-2.4 6.15.38 10.43 8.28 7.45 13.67-.93 1.68-2.32 2.64-4.13 2.53zM143.526 159.411c.04 4.72-2.94 7.55-6.78 6.49-1.85-.51-2.97-1.58-2.92-3.57.06-2.26-.79-4.08-2.41-5.61-1.23-1.15-2.15-2.53-1.38-4.26.8-1.79 2.42-2.46 4.33-2.53 4.79-.18 9.12 4.3 9.16 9.48zM118.205 145.401c.04 4.32-2.46 7.05-6.1 6.6-2.18-.27-3.63-1.33-3.61-3.74.01-2.24-.78-4.1-2.42-5.61-1.27-1.17-2.12-2.55-1.36-4.25.8-1.79 2.49-2.44 4.34-2.55 4.61-.27 9.09 4.44 9.15 9.55zM187.606 173.081c0 4.74-2.88 7.38-6.8 6.31-1.88-.51-2.93-1.67-2.84-3.6.1-2.18-.7-3.9-2.19-5.41-1.25-1.27-2.59-2.59-1.46-4.59 1.13-2.01 3.07-2.53 5.17-2.35 4.52.4 8.12 4.74 8.12 9.64zM128.386 186.981c.04 4.64-2.29 7.08-6.25 6.57-2.15-.28-3.47-1.4-3.4-3.63.07-2.18-.691-3.93-2.201-5.43-1.28-1.28-2.609-2.68-1.469-4.62 1.19-2.02 3.17-2.71 5.44-2.37 4.36.64 7.85 4.87 7.88 9.48zM118.315 117.102c-.02 4.8-3.16 7.499-7.11 6.159-1.64-.55-2.62-1.66-2.52-3.33.15-2.5-.93-4.34-2.58-6.02-1.03-1.04-1.94-2.2-1.28-3.79.72-1.71 2.16-2.5 3.94-2.68 5.06-.51 9.57 4.061 9.55 9.661zM140.494 133.911c-.04 4.43-2.84 7.19-6.51 6.37-1.91-.42-3.24-1.47-3.18-3.63.07-2.25-.75-4.1-2.38-5.62-1.23-1.15-2.17-2.53-1.44-4.25.77-1.8 2.44-2.48 4.31-2.59 4.77-.3 9.25 4.45 9.2 9.72zM182.465 104.811c.05 4.68-2.97 7.52-6.81 6.45-1.86-.52-2.95-1.61-2.9-3.58.06-2.26-.8-4.07-2.42-5.6-1.23-1.15-2.13-2.55-1.35-4.26.81-1.78 2.43-2.45 4.34-2.52 4.73-.17 9.08 4.35 9.14 9.51zM185.015 141.511c.03 4.42-2.29 6.91-6.09 6.54-2.26-.22-3.64-1.34-3.59-3.71.05-2.17-.76-3.93-2.26-5.42-1.31-1.3-2.54-2.72-1.39-4.63 1.21-2 3.2-2.66 5.47-2.3 4.37.67 7.83 4.91 7.86 9.52zM164.336 141.331c-.02 4.74-3 7.38-6.93 6.2-1.76-.53-2.83-1.63-2.72-3.45.14-2.42-.9-4.21-2.49-5.83-1.1-1.11-2.07-2.32-1.31-4.02.77-1.72 2.26-2.41 4.05-2.56 5.01-.42 9.42 4.12 9.4 9.66zM76.385 155.711c.02 4.5-2.28 6.93-6.11 6.45-2.24-.28-3.63-1.52-3.56-3.81.07-2.21-.77-3.87-2.26-5.39-1.17-1.19-2.5-2.48-1.41-4.4 1.18-2.08 3.14-2.74 5.38-2.5 4.3.46 7.94 4.94 7.96 9.65z" fill="#52926C"/><path d="M81.774 680.331c.02 4.33-2.82 7.18-6.45 6.48-2.07-.4-3.44-1.6-3.39-3.73.05-2.38-.84-4.19-2.47-5.81-1.01-1-2.04-2.1-1.34-3.75.77-1.82 2.26-2.65 4.13-2.81 4.83-.42 9.5 4.31 9.52 9.62zM18.996 712.631c3.7.13 6.04 2.4 7.64 5.35 1.57 2.89 1.51 6.01-.34 8.85-1.25 1.92-3.19 2.34-5.32 1.86-2.21-.5-3.26-2.02-3.16-4.21.09-2.03-.8-3.53-2.13-4.91-1.18-1.22-2.48-2.47-1.52-4.38.98-1.93 2.74-2.58 4.83-2.56zM94.044 687.921c2.51.2 4.84 2.37 6.38 5.25 1.55 2.89 1.54 6.02-.3 8.86-1.3 2-3.31 2.4-5.56 1.84-2.15-.54-3.02-2.06-2.94-4.11.08-2.02-.79-3.53-2.1-4.93-1.13-1.21-2.57-2.38-1.58-4.35 1.05-2.04 2.87-2.68 6.1-2.56zM33.724 761.361c-3.16-.04-4.72-1.26-4.75-4-.02-2.21-.86-3.85-2.29-5.37-1.03-1.09-2.16-2.16-1.51-3.94.67-1.83 2.21-2.48 3.87-2.82 2.92-.6 6.97 1.89 8.75 5.24 1.55 2.91 1.18 7.45-.78 9.48-.98 1.02-2.18 1.51-3.29 1.41zM51.104 674.741c.06 4.64-2.2 7.07-6.15 6.63-2.25-.25-3.59-1.44-3.5-3.77.08-2.19-.77-3.88-2.26-5.38-1.28-1.28-2.55-2.68-1.37-4.61 1.22-2 3.22-2.63 5.45-2.33 4.19.55 7.77 4.93 7.83 9.46zM33.905 687.881c0 4.48-2.64 7.23-6.3 6.51-2-.4-3.48-1.47-3.34-3.73.14-2.31-.83-4.01-2.38-5.57-1.12-1.14-2.27-2.42-1.43-4.21.88-1.87 2.56-2.55 4.53-2.6 4.74-.13 8.92 4.38 8.92 9.6zM89.365 773.521c-3.18-.01-4.67-1.22-4.72-4.18-.04-2.12-.86-3.73-2.26-5.15-1.26-1.27-2.24-2.66-1.28-4.47 1.03-1.93 2.93-2.52 4.94-2.4 6.15.38 10.43 8.28 7.45 13.67-.93 1.68-2.31 2.65-4.13 2.53zM80.895 744.381c.04 4.72-2.94 7.55-6.78 6.49-1.85-.51-2.97-1.58-2.92-3.57.06-2.26-.79-4.08-2.41-5.61-1.23-1.15-2.15-2.53-1.38-4.26.8-1.79 2.42-2.46 4.33-2.53 4.78-.19 9.12 4.3 9.16 9.48zM55.564 730.371c.04 4.32-2.46 7.05-6.1 6.6-2.18-.27-3.63-1.33-3.61-3.74.01-2.24-.78-4.1-2.42-5.61-1.27-1.17-2.12-2.55-1.36-4.25.8-1.79 2.49-2.44 4.34-2.55 4.61-.28 9.1 4.43 9.15 9.55zM124.975 758.041c0 4.74-2.88 7.38-6.8 6.31-1.88-.51-2.93-1.67-2.84-3.6.1-2.18-.7-3.9-2.19-5.41-1.25-1.27-2.59-2.59-1.46-4.59 1.13-2.01 3.07-2.53 5.17-2.35 4.52.41 8.12 4.75 8.12 9.64zM65.755 771.941c.04 4.64-2.29 7.08-6.25 6.57-2.15-.28-3.47-1.4-3.4-3.63.07-2.18-.69-3.93-2.2-5.43-1.28-1.28-2.61-2.68-1.47-4.62 1.19-2.02 3.17-2.71 5.44-2.37 4.36.65 7.84 4.88 7.88 9.48zM55.675 702.071c-.02 4.8-3.16 7.5-7.11 6.16-1.64-.55-2.62-1.66-2.52-3.33.15-2.5-.93-4.34-2.58-6.02-1.03-1.04-1.94-2.2-1.28-3.79.72-1.71 2.16-2.5 3.94-2.68 5.07-.51 9.58 4.05 9.55 9.66zM77.854 718.871c-.04 4.43-2.84 7.19-6.51 6.37-1.91-.42-3.24-1.47-3.18-3.63.07-2.25-.75-4.1-2.38-5.62-1.23-1.15-2.17-2.53-1.44-4.25.77-1.8 2.44-2.48 4.31-2.59 4.77-.29 9.25 4.46 9.2 9.72zM119.824 689.781c.05 4.68-2.97 7.52-6.81 6.45-1.86-.52-2.95-1.61-2.9-3.58.06-2.26-.8-4.07-2.42-5.6-1.23-1.15-2.13-2.55-1.35-4.26.81-1.78 2.43-2.45 4.34-2.52 4.74-.18 9.09 4.34 9.14 9.51zM122.384 726.471c.03 4.42-2.29 6.91-6.09 6.54-2.26-.22-3.64-1.34-3.59-3.71.05-2.17-.76-3.93-2.26-5.42-1.31-1.3-2.54-2.72-1.39-4.63 1.21-2 3.2-2.66 5.47-2.3 4.36.68 7.82 4.92 7.86 9.52zM101.695 726.291c-.02 4.74-3 7.38-6.93 6.2-1.76-.53-2.83-1.63-2.72-3.45.14-2.41-.9-4.21-2.49-5.83-1.1-1.11-2.07-2.32-1.31-4.02.77-1.72 2.26-2.41 4.05-2.56 5.02-.41 9.43 4.12 9.4 9.66zM13.745 740.671c.02 4.5-2.28 6.93-6.11 6.45-2.24-.28-3.63-1.52-3.56-3.81.07-2.21-.77-3.87-2.26-5.39-1.17-1.19-2.5-2.48-1.41-4.4 1.18-2.08 3.14-2.74 5.38-2.5 4.3.46 7.95 4.95 7.96 9.65z" fill="#E89FC0"/><path d="M1267.636 352.281c.02 4.33-2.82 7.18-6.45 6.48-2.07-.4-3.44-1.6-3.39-3.73.05-2.38-.84-4.19-2.47-5.81-1.01-1-2.04-2.1-1.34-3.75.77-1.82 2.26-2.65 4.13-2.81 4.83-.42 9.5 4.31 9.52 9.62zM1204.846 384.591c3.7.13 6.04 2.4 7.64 5.35 1.57 2.89 1.51 6.01-.34 8.85-1.25 1.92-3.19 2.34-5.32 1.86-2.21-.5-3.26-2.02-3.16-4.21.09-2.03-.8-3.53-2.13-4.91-1.18-1.22-2.48-2.47-1.52-4.38.98-1.93 2.74-2.58 4.83-2.56zM1279.896 359.871c2.51.2 4.84 2.37 6.38 5.25 1.55 2.89 1.54 6.02-.3 8.86-1.3 2-3.31 2.4-5.56 1.84-2.15-.54-3.02-2.06-2.94-4.11.08-2.02-.79-3.53-2.1-4.93-1.13-1.21-2.57-2.38-1.58-4.35 1.05-2.04 2.88-2.67 6.1-2.56zM1219.576 433.311c-3.16-.04-4.72-1.26-4.75-4-.02-2.21-.86-3.85-2.29-5.37-1.03-1.09-2.16-2.16-1.51-3.94.67-1.83 2.21-2.48 3.87-2.82 2.92-.6 6.97 1.89 8.75 5.24 1.55 2.91 1.18 7.45-.78 9.48-.97 1.02-2.18 1.51-3.29 1.41zM1236.956 346.691c.06 4.64-2.2 7.07-6.15 6.63-2.25-.25-3.59-1.44-3.5-3.77.08-2.19-.77-3.88-2.26-5.38-1.28-1.28-2.55-2.68-1.37-4.61 1.22-2 3.22-2.63 5.45-2.33 4.19.55 7.78 4.94 7.83 9.46zM1219.766 359.831c0 4.47-2.64 7.23-6.3 6.51-2-.4-3.48-1.47-3.34-3.73.14-2.31-.83-4.01-2.38-5.57-1.12-1.14-2.27-2.42-1.43-4.21.88-1.87 2.56-2.55 4.53-2.6 4.73-.13 8.91 4.38 8.92 9.6zM1275.216 445.481c-3.18-.01-4.67-1.22-4.72-4.18-.04-2.12-.86-3.73-2.26-5.15-1.26-1.27-2.24-2.66-1.28-4.47 1.03-1.93 2.93-2.52 4.94-2.4 6.15.38 10.43 8.28 7.45 13.67-.92 1.68-2.31 2.64-4.13 2.53zM1266.746 416.331c.04 4.72-2.94 7.55-6.78 6.49-1.85-.51-2.97-1.58-2.92-3.57.06-2.26-.79-4.08-2.41-5.61-1.23-1.15-2.15-2.53-1.38-4.26.8-1.79 2.42-2.46 4.33-2.53 4.79-.19 9.12 4.3 9.16 9.48zM1241.416 402.321c.04 4.32-2.46 7.05-6.1 6.6-2.18-.27-3.63-1.33-3.61-3.74.01-2.24-.78-4.1-2.42-5.61-1.27-1.17-2.12-2.55-1.36-4.25.8-1.79 2.49-2.44 4.34-2.55 4.62-.28 9.1 4.43 9.15 9.55zM1310.826 429.991c0 4.74-2.88 7.38-6.8 6.31-1.88-.51-2.93-1.67-2.84-3.6.1-2.18-.7-3.9-2.19-5.41-1.25-1.27-2.59-2.59-1.46-4.59 1.13-2.01 3.07-2.53 5.17-2.35 4.52.41 8.12 4.75 8.12 9.64zM1251.606 443.901c.04 4.64-2.29 7.08-6.25 6.57-2.15-.28-3.47-1.4-3.4-3.63.07-2.18-.69-3.93-2.2-5.43-1.28-1.28-2.61-2.68-1.47-4.62 1.19-2.02 3.17-2.71 5.44-2.37 4.36.64 7.84 4.87 7.88 9.48zM1241.536 374.021c-.02 4.8-3.16 7.5-7.11 6.16-1.64-.56-2.62-1.66-2.52-3.33.15-2.5-.93-4.34-2.58-6.02-1.03-1.04-1.94-2.2-1.28-3.79.72-1.71 2.16-2.5 3.94-2.68 5.06-.51 9.57 4.05 9.55 9.66zM1263.716 390.831c-.04 4.43-2.84 7.19-6.51 6.37-1.91-.42-3.24-1.47-3.18-3.63.07-2.25-.75-4.1-2.38-5.62-1.23-1.15-2.17-2.53-1.44-4.25.77-1.8 2.44-2.48 4.31-2.59 4.77-.3 9.25 4.45 9.2 9.72zM1305.686 361.731c.05 4.68-2.97 7.52-6.81 6.45-1.86-.52-2.95-1.61-2.9-3.58.06-2.26-.8-4.07-2.42-5.6-1.23-1.15-2.13-2.55-1.35-4.26.81-1.78 2.43-2.45 4.34-2.52 4.73-.18 9.08 4.34 9.14 9.51zM1308.236 398.421c.03 4.42-2.29 6.91-6.09 6.54-2.26-.22-3.64-1.34-3.59-3.71.05-2.17-.76-3.93-2.26-5.42-1.31-1.3-2.54-2.72-1.39-4.63 1.21-2 3.2-2.66 5.47-2.3 4.36.68 7.83 4.92 7.86 9.52zM1287.556 398.241c-.02 4.74-3 7.38-6.93 6.2-1.76-.53-2.83-1.63-2.72-3.45.14-2.41-.9-4.21-2.49-5.83-1.1-1.11-2.07-2.32-1.31-4.02.77-1.72 2.26-2.41 4.05-2.56 5.01-.41 9.42 4.13 9.4 9.66zM1199.606 412.621c.02 4.5-2.28 6.93-6.11 6.45-2.24-.28-3.63-1.52-3.56-3.81.07-2.21-.77-3.87-2.26-5.39-1.17-1.19-2.5-2.48-1.41-4.4 1.18-2.08 3.14-2.74 5.38-2.5 4.29.47 7.94 4.95 7.96 9.65zM1992.295 190.751c0-6.91-.01-13.82 0-20.74 0-3.05.86-3.91 3.88-3.92 7.51-.04 14.25 1.8 19.61 7.52 3.72 3.97 5.11 8.87 5.73 13.96 1.11 9.08 7.58 13.74 15.72 14.53 5.91.57 11.27-.46 16.25-3.75 2.48-1.64 3.88-3.87 4.6-6.66 2.76-10.66 13.91-19.89 24.9-21.1 9.08-1 17.02 1.09 23.42 7.75 3.49 3.64 5.3 8.35 7.31 12.89 2.17 4.91 5.42 8.68 11.06 9.09 4.47.33 8.5-1.54 12.34-3.76 6.12-3.54 9.9-8.86 12.32-15.39 3.19-8.59 9.94-13.06 18.5-15.03 10.43-2.39 22.73 4.52 25.89 16.15 2.52 9.28 9.31 13.68 17.72 16.15 6.55 1.92 11.69-.65 14.83-6.8 2.18-4.26 3.7-8.86 6.63-12.74 4.41-5.84 10.36-8.99 17.55-9.72 3.88-.4 4.78.64 4.79 4.55.01 11.72 0 23.43 0 35.15 0 2.11.02 4.21-.01 6.32-.03 2.09-1.09 3.36-3.2 3.48-12.03.66-19.37 7.38-23.66 18.15-.9 2.26-1.99 4.45-3.37 6.49-2.93 4.31-7.16 6-12.04 5.09-6.42-1.2-11.93-4.35-16.15-9.48-1.48-1.79-2.15-3.98-2.78-6.16-3.1-10.7-11.13-17.04-22.05-17.5-5.9-.25-11.02 2.28-15.69 5.94-3.95 3.11-6.11 7.15-7.91 11.69-4.03 10.15-11.99 15.71-22.54 16.98-5.27.64-9.17-2.78-11.52-7.53-2.09-4.22-3.69-8.67-6.49-12.53-4.1-5.65-9.81-8.49-16.54-9.59-10.19-1.67-18.69 1.93-25.97 8.71-3.01 2.8-5.73 6.17-6.61 10.27-1.56 7.34-6.41 10.64-13.21 12.08-6.81 1.44-13.14.61-18.83-3.68-3.9-2.95-4.94-7.32-5.58-11.73-1.8-12.44-8.14-16.49-18.18-19.11-2.41-.63-4.91-1.04-7.44-1.12-2.42-.08-3.29-1.62-3.29-3.9.02-7.01.01-14.01.01-21z" fill="#52926C"/><path d="M1826.635 629.731c0-6.91-.01-13.82 0-20.74 0-3.05.86-3.91 3.88-3.92 7.51-.04 14.25 1.8 19.61 7.52 3.72 3.97 5.11 8.87 5.73 13.96 1.11 9.08 7.58 13.74 15.72 14.53 5.91.57 11.27-.46 16.25-3.75 2.48-1.64 3.88-3.87 4.6-6.66 2.76-10.66 13.91-19.89 24.9-21.1 9.08-1 17.02 1.09 23.42 7.75 3.49 3.64 5.3 8.35 7.31 12.89 2.17 4.91 5.42 8.68 11.06 9.09 4.47.33 8.5-1.54 12.34-3.76 6.12-3.54 9.9-8.86 12.32-15.39 3.19-8.59 9.94-13.06 18.5-15.03 10.43-2.39 22.73 4.52 25.89 16.15 2.52 9.28 9.31 13.68 17.72 16.15 6.55 1.92 11.69-.65 14.83-6.8 2.18-4.26 3.7-8.86 6.63-12.74 4.41-5.84 10.36-8.99 17.55-9.72 3.88-.4 4.78.64 4.79 4.55.01 11.72 0 23.43 0 35.15 0 2.11.02 4.21-.01 6.32-.03 2.09-1.09 3.36-3.2 3.48-12.03.66-19.37 7.38-23.66 18.15-.9 2.26-1.99 4.45-3.37 6.49-2.93 4.31-7.16 6-12.04 5.09-6.42-1.2-11.93-4.35-16.15-9.48-1.48-1.79-2.15-3.98-2.78-6.16-3.1-10.7-11.13-17.04-22.05-17.5-5.9-.25-11.02 2.28-15.69 5.94-3.95 3.11-6.11 7.15-7.91 11.69-4.03 10.15-11.99 15.71-22.54 16.98-5.27.64-9.17-2.78-11.52-7.53-2.09-4.22-3.69-8.67-6.49-12.53-4.1-5.65-9.81-8.49-16.54-9.59-10.19-1.67-18.69 1.93-25.97 8.71-3.01 2.8-5.73 6.17-6.61 10.27-1.56 7.34-6.41 10.64-13.21 12.08-6.81 1.44-13.14.61-18.83-3.68-3.9-2.95-4.94-7.32-5.58-11.73-1.8-12.44-8.14-16.49-18.18-19.11-2.41-.63-4.91-1.04-7.44-1.12-2.42-.08-3.29-1.62-3.29-3.9.03-7.01.01-14.01.01-21zM1422.184 492.841c0-6.91-.01-13.82 0-20.74 0-3.05.86-3.91 3.88-3.92 7.51-.04 14.25 1.8 19.61 7.52 3.72 3.97 5.11 8.87 5.73 13.96 1.11 9.08 7.58 13.74 15.72 14.53 5.91.57 11.27-.46 16.25-3.75 2.48-1.64 3.88-3.87 4.6-6.66 2.76-10.66 13.91-19.89 24.9-21.1 9.08-1 17.02 1.09 23.42 7.75 3.49 3.64 5.3 8.35 7.31 12.89 2.17 4.91 5.42 8.68 11.06 9.09 4.47.33 8.5-1.54 12.34-3.76 6.12-3.54 9.9-8.86 12.32-15.39 3.19-8.59 9.94-13.06 18.5-15.03 10.43-2.39 22.73 4.52 25.89 16.15 2.52 9.28 9.31 13.68 17.72 16.15 6.55 1.92 11.69-.65 14.83-6.8 2.18-4.26 3.7-8.86 6.63-12.74 4.41-5.84 10.36-8.99 17.55-9.72 3.88-.4 4.78.64 4.79 4.55.01 11.72 0 23.43 0 35.15 0 2.11.02 4.21-.01 6.32-.03 2.09-1.09 3.36-3.2 3.48-12.03.66-19.37 7.38-23.66 18.15-.9 2.26-1.99 4.45-3.37 6.49-2.93 4.31-7.16 6-12.04 5.09-6.42-1.2-11.93-4.35-16.15-9.48-1.48-1.79-2.15-3.98-2.78-6.16-3.1-10.7-11.13-17.04-22.05-17.5-5.9-.25-11.02 2.28-15.69 5.94-3.95 3.11-6.11 7.15-7.91 11.69-4.03 10.15-11.99 15.71-22.54 16.98-5.27.64-9.17-2.78-11.52-7.53-2.09-4.22-3.69-8.67-6.49-12.53-4.1-5.65-9.81-8.49-16.54-9.59-10.19-1.67-18.69 1.93-25.97 8.71-3.01 2.8-5.73 6.17-6.61 10.27-1.56 7.34-6.41 10.64-13.21 12.08-6.81 1.44-13.14.61-18.83-3.68-3.9-2.95-4.94-7.32-5.58-11.73-1.8-12.44-8.14-16.49-18.18-19.11-2.41-.63-4.91-1.04-7.44-1.12-2.42-.08-3.29-1.62-3.29-3.9.03-7.01.01-14.01.01-21zM1633.894 46.081c0-6.91-.01-13.82 0-20.74 0-3.05.86-3.91 3.88-3.92 7.51-.04 14.251 1.8 19.611 7.52 3.72 3.97 5.11 8.87 5.73 13.96 1.11 9.08 7.58 13.74 15.72 14.53 5.91.57 11.27-.46 16.25-3.75 2.48-1.64 3.88-3.87 4.6-6.66 2.76-10.66 13.91-19.89 24.9-21.1 9.08-1 17.02 1.09 23.42 7.75 3.49 3.64 5.3 8.35 7.31 12.89 2.17 4.91 5.42 8.68 11.06 9.09 4.47.33 8.5-1.54 12.34-3.76 6.12-3.54 9.9-8.86 12.32-15.39 3.19-8.59 9.94-13.06 18.5-15.03 10.43-2.39 22.73 4.52 25.89 16.15 2.52 9.28 9.31 13.68 17.72 16.15 6.55 1.92 11.69-.65 14.83-6.8 2.18-4.26 3.7-8.86 6.63-12.74 4.41-5.84 10.36-8.99 17.55-9.72 3.88-.4 4.78.64 4.79 4.55.01 11.72 0 23.43 0 35.15 0 2.11.02 4.21-.01 6.32-.03 2.09-1.091 3.36-3.2 3.48-12.03.66-19.37 7.38-23.66 18.15-.9 2.26-1.99 4.45-3.37 6.49-2.93 4.31-7.16 6-12.04 5.09-6.42-1.2-11.93-4.35-16.15-9.48-1.48-1.79-2.15-3.98-2.78-6.16-3.1-10.7-11.13-17.04-22.05-17.5-5.9-.25-11.02 2.28-15.69 5.94-3.95 3.11-6.11 7.15-7.91 11.69-4.03 10.15-11.99 15.71-22.54 16.98-5.27.64-9.17-2.78-11.52-7.53-2.09-4.22-3.69-8.68-6.49-12.53-4.1-5.65-9.81-8.49-16.54-9.59-10.19-1.67-18.69 1.93-25.97 8.71-3.01 2.8-5.73 6.17-6.61 10.27-1.56 7.34-6.41 10.64-13.21 12.08-6.81 1.44-13.14.61-18.83-3.68-3.9-2.95-4.94-7.32-5.58-11.73-1.8-12.44-8.14-16.49-18.18-19.11-2.41-.63-4.91-1.04-7.44-1.12-2.42-.08-3.29-1.62-3.29-3.9.03-7 .009-14 .009-21z" fill="#E89FC0"/><path d="M1826.635 629.731c0-6.91-.01-13.82 0-20.74 0-3.05.86-3.91 3.88-3.92 7.51-.04 14.25 1.8 19.61 7.52 3.72 3.97 5.11 8.87 5.73 13.96 1.11 9.08 7.58 13.74 15.72 14.53 5.91.57 11.27-.46 16.25-3.75 2.48-1.64 3.88-3.87 4.6-6.66 2.76-10.66 13.91-19.89 24.9-21.1 9.08-1 17.02 1.09 23.42 7.75 3.49 3.64 5.3 8.35 7.31 12.89 2.17 4.91 5.42 8.68 11.06 9.09 4.47.33 8.5-1.54 12.34-3.76 6.12-3.54 9.9-8.86 12.32-15.39 3.19-8.59 9.94-13.06 18.5-15.03 10.43-2.39 22.73 4.52 25.89 16.15 2.52 9.28 9.31 13.68 17.72 16.15 6.55 1.92 11.69-.65 14.83-6.8 2.18-4.26 3.7-8.86 6.63-12.74 4.41-5.84 10.36-8.99 17.55-9.72 3.88-.4 4.78.64 4.79 4.55.01 11.72 0 23.43 0 35.15 0 2.11.02 4.21-.01 6.32-.03 2.09-1.09 3.36-3.2 3.48-12.03.66-19.37 7.38-23.66 18.15-.9 2.26-1.99 4.45-3.37 6.49-2.93 4.31-7.16 6-12.04 5.09-6.42-1.2-11.93-4.35-16.15-9.48-1.48-1.79-2.15-3.98-2.78-6.16-3.1-10.7-11.13-17.04-22.05-17.5-5.9-.25-11.02 2.28-15.69 5.94-3.95 3.11-6.11 7.15-7.91 11.69-4.03 10.15-11.99 15.71-22.54 16.98-5.27.64-9.17-2.78-11.52-7.53-2.09-4.22-3.69-8.67-6.49-12.53-4.1-5.65-9.81-8.49-16.54-9.59-10.19-1.67-18.69 1.93-25.97 8.71-3.01 2.8-5.73 6.17-6.61 10.27-1.56 7.34-6.41 10.64-13.21 12.08-6.81 1.44-13.14.61-18.83-3.68-3.9-2.95-4.94-7.32-5.58-11.73-1.8-12.44-8.14-16.49-18.18-19.11-2.41-.63-4.91-1.04-7.44-1.12-2.42-.08-3.29-1.62-3.29-3.9.03-7.01.01-14.01.01-21zM1762.315 390.561c-5.94 7.31-7.99 17.66-7.03 28.94.53 6.17 1.63 12.18 3.21 18.13 2.09 7.88 6.57 14.27 12.27 19.96 7.47 7.47 16 13 26.4 15.53 11.74 2.85 21.79.19 29.56-9.13 4.12-4.94 7-10.75 7.73-17.29.81-7.3-2.15-13.13-7.61-17.79-2.95-2.51-6.39-4.39-9.22-7.06-5.45-5.15-7.93-11.79-9.43-18.89-.98-4.61-1.43-9.33-2.77-13.87-3.41-11.58-12.82-16.54-24.39-12.87-7.26 2.29-12.97 6.42-18.72 14.34z" fill="#E89FC0"/><path d="M1509.775 283.191c-5.94 7.31-7.989 17.66-7.029 28.94.53 6.17 1.63 12.18 3.21 18.13 2.09 7.88 6.57 14.27 12.27 19.96 7.47 7.47 16 13 26.4 15.53 11.74 2.85 21.789.19 29.559-9.13 4.12-4.94 7-10.75 7.73-17.29.81-7.3-2.15-13.13-7.61-17.79-2.95-2.51-6.389-4.39-9.219-7.06-5.45-5.15-7.931-11.79-9.431-18.89-.98-4.61-1.429-9.33-2.769-13.87-3.41-11.58-12.82-16.54-24.39-12.87-7.26 2.3-12.971 6.42-18.721 14.34zM1625.885 670.461c-5.94 7.31-7.99 17.66-7.03 28.94.53 6.17 1.63 12.18 3.21 18.13 2.09 7.88 6.57 14.27 12.27 19.96 7.47 7.47 16 13 26.4 15.53 11.74 2.85 21.79.19 29.56-9.13 4.12-4.94 7-10.75 7.73-17.29.81-7.3-2.15-13.13-7.61-17.79-2.95-2.51-6.39-4.39-9.22-7.06-5.45-5.15-7.93-11.79-9.43-18.89-.98-4.61-1.43-9.33-2.77-13.87-3.41-11.58-12.82-16.54-24.39-12.87-7.26 2.29-12.97 6.42-18.72 14.34z" fill="#52926C"/><path d="M2273.104 126.681c-.01 4.73-3.02 7.43-6.89 6.26-1.76-.53-2.84-1.63-2.73-3.45.13-2.41-.87-4.22-2.48-5.84-1.11-1.11-2.1-2.3-1.35-4.01.76-1.72 2.27-2.42 4.04-2.59 4.94-.45 9.43 4.15 9.41 9.63zM1822.643 202.371c.02 4.33-2.82 7.18-6.45 6.48-2.07-.4-3.44-1.6-3.39-3.73.05-2.38-.84-4.19-2.47-5.81-1.01-1-2.04-2.1-1.34-3.75.77-1.82 2.26-2.65 4.13-2.81 4.83-.43 9.5 4.31 9.52 9.62zM1759.853 234.671c3.7.13 6.04 2.4 7.64 5.35 1.57 2.89 1.51 6.01-.34 8.85-1.25 1.92-3.19 2.34-5.32 1.85-2.21-.5-3.26-2.02-3.16-4.21.09-2.03-.8-3.53-2.13-4.91-1.18-1.22-2.48-2.47-1.52-4.38.98-1.92 2.74-2.57 4.83-2.55zM1834.913 209.961c2.51.2 4.84 2.37 6.38 5.25 1.55 2.89 1.54 6.02-.3 8.86-1.3 2-3.31 2.4-5.56 1.84-2.15-.54-3.02-2.06-2.94-4.11.08-2.02-.79-3.53-2.1-4.93-1.13-1.21-2.57-2.38-1.58-4.35 1.04-2.05 2.87-2.68 6.1-2.56zM1774.583 283.391c-3.16-.04-4.72-1.26-4.75-4-.02-2.21-.86-3.85-2.29-5.37-1.03-1.09-2.16-2.16-1.51-3.94.67-1.83 2.21-2.48 3.87-2.82 2.92-.6 6.97 1.89 8.75 5.24 1.55 2.91 1.18 7.45-.78 9.48-.97 1.03-2.18 1.51-3.29 1.41zM1791.963 196.781c.06 4.64-2.2 7.07-6.15 6.63-2.25-.25-3.59-1.44-3.5-3.77.08-2.19-.77-3.88-2.26-5.38-1.28-1.28-2.55-2.68-1.37-4.61 1.22-2 3.22-2.63 5.45-2.33 4.19.55 7.78 4.93 7.83 9.46zM1774.774 209.911c0 4.47-2.64 7.23-6.3 6.51-2-.4-3.48-1.47-3.34-3.73.14-2.31-.83-4.01-2.38-5.57-1.12-1.14-2.27-2.42-1.43-4.21.88-1.87 2.56-2.55 4.53-2.6 4.73-.12 8.91 4.38 8.92 9.6zM1830.225 295.561c-3.18-.01-4.671-1.22-4.721-4.18-.04-2.12-.86-3.73-2.26-5.15-1.26-1.27-2.239-2.66-1.279-4.47 1.03-1.93 2.93-2.52 4.94-2.4 6.15.38 10.43 8.28 7.45 13.67-.92 1.68-2.31 2.65-4.13 2.53zM1821.754 266.421c.04 4.72-2.939 7.55-6.779 6.49-1.85-.51-2.971-1.58-2.921-3.57.06-2.26-.789-4.08-2.409-5.61-1.23-1.15-2.15-2.53-1.38-4.26.8-1.79 2.42-2.46 4.33-2.53 4.79-.19 9.119 4.29 9.159 9.48zM1796.424 252.401c.04 4.32-2.46 7.05-6.1 6.6-2.18-.27-3.63-1.33-3.61-3.74.01-2.24-.78-4.1-2.42-5.61-1.27-1.17-2.12-2.55-1.36-4.25.8-1.79 2.49-2.44 4.34-2.55 4.62-.27 9.1 4.44 9.15 9.55zM1865.835 280.081c0 4.74-2.88 7.38-6.8 6.31-1.88-.51-2.93-1.67-2.84-3.6.1-2.18-.7-3.9-2.19-5.41-1.25-1.27-2.59-2.59-1.46-4.59 1.13-2.01 3.07-2.53 5.17-2.35 4.52.4 8.12 4.74 8.12 9.64zM1806.614 293.981c.04 4.64-2.29 7.08-6.25 6.57-2.15-.28-3.47-1.4-3.4-3.63.07-2.18-.69-3.93-2.2-5.43-1.28-1.28-2.61-2.68-1.47-4.62 1.19-2.02 3.17-2.71 5.44-2.37 4.36.64 7.84 4.88 7.88 9.48zM1796.544 224.101c-.02 4.8-3.16 7.5-7.11 6.16-1.64-.55-2.62-1.66-2.52-3.33.15-2.5-.93-4.34-2.58-6.02-1.03-1.04-1.94-2.2-1.28-3.79.72-1.71 2.16-2.5 3.94-2.68 5.06-.51 9.57 4.06 9.55 9.66zM1818.723 240.911c-.04 4.43-2.84 7.19-6.51 6.37-1.91-.42-3.24-1.47-3.18-3.63.07-2.25-.75-4.1-2.38-5.62-1.23-1.15-2.17-2.53-1.44-4.25.77-1.8 2.44-2.48 4.31-2.59 4.77-.29 9.25 4.46 9.2 9.72zM1860.693 211.811c.05 4.68-2.97 7.52-6.81 6.45-1.86-.52-2.95-1.61-2.9-3.58.06-2.26-.8-4.07-2.42-5.6-1.23-1.15-2.13-2.55-1.35-4.26.81-1.78 2.43-2.45 4.34-2.52 4.73-.17 9.08 4.35 9.14 9.51zM1863.244 248.511c.03 4.42-2.29 6.91-6.09 6.54-2.26-.22-3.64-1.34-3.59-3.71.05-2.17-.76-3.93-2.26-5.42-1.31-1.3-2.54-2.72-1.39-4.63 1.21-2 3.2-2.66 5.47-2.3 4.36.67 7.83 4.92 7.86 9.52zM1842.564 248.331c-.02 4.74-3 7.38-6.93 6.2-1.76-.53-2.83-1.63-2.72-3.45.14-2.42-.9-4.21-2.49-5.83-1.1-1.11-2.07-2.32-1.31-4.02.77-1.72 2.26-2.41 4.05-2.56 5.01-.42 9.42 4.12 9.4 9.66zM1754.614 262.711c.02 4.5-2.28 6.93-6.11 6.45-2.24-.28-3.63-1.52-3.56-3.81.07-2.21-.77-3.87-2.26-5.39-1.17-1.19-2.5-2.48-1.41-4.4 1.18-2.08 3.14-2.74 5.38-2.5 4.3.46 7.94 4.95 7.96 9.65z" fill="#E89FC0"/><path d="M2066.643 393.371c.02 4.33-2.82 7.18-6.45 6.48-2.07-.4-3.44-1.6-3.39-3.73.05-2.38-.84-4.19-2.47-5.81-1.01-1-2.04-2.1-1.34-3.75.77-1.82 2.26-2.65 4.13-2.81 4.83-.43 9.5 4.31 9.52 9.62zM2003.853 425.671c3.7.13 6.04 2.4 7.64 5.35 1.57 2.89 1.51 6.01-.34 8.85-1.25 1.92-3.19 2.34-5.32 1.85-2.21-.5-3.26-2.02-3.16-4.21.09-2.03-.8-3.53-2.13-4.91-1.18-1.22-2.48-2.47-1.52-4.38.98-1.92 2.74-2.57 4.83-2.55zM2078.913 400.961c2.51.2 4.84 2.37 6.38 5.25 1.55 2.89 1.54 6.02-.3 8.86-1.3 2-3.31 2.4-5.56 1.84-2.15-.54-3.02-2.06-2.94-4.11.08-2.02-.79-3.53-2.1-4.93-1.13-1.21-2.57-2.38-1.58-4.35 1.04-2.05 2.87-2.68 6.1-2.56zM2018.583 474.391c-3.16-.04-4.72-1.26-4.75-4-.02-2.21-.86-3.85-2.29-5.37-1.03-1.09-2.16-2.16-1.51-3.94.67-1.83 2.21-2.48 3.87-2.82 2.92-.6 6.97 1.89 8.75 5.24 1.55 2.91 1.18 7.45-.78 9.48-.97 1.03-2.18 1.51-3.29 1.41zM2035.963 387.781c.06 4.64-2.2 7.07-6.15 6.63-2.25-.25-3.59-1.44-3.5-3.77.08-2.19-.77-3.88-2.26-5.38-1.28-1.28-2.55-2.68-1.37-4.61 1.22-2 3.22-2.63 5.45-2.33 4.19.55 7.78 4.93 7.83 9.46zM2018.774 400.911c0 4.47-2.64 7.23-6.3 6.51-2-.4-3.48-1.47-3.34-3.73.14-2.31-.83-4.01-2.38-5.57-1.12-1.14-2.27-2.42-1.43-4.21.88-1.87 2.56-2.55 4.53-2.6 4.73-.12 8.91 4.38 8.92 9.6zM2074.225 486.561c-3.18-.01-4.671-1.22-4.721-4.18-.04-2.12-.86-3.73-2.26-5.15-1.26-1.27-2.239-2.66-1.279-4.47 1.03-1.93 2.93-2.52 4.94-2.4 6.15.38 10.43 8.28 7.45 13.67-.92 1.68-2.31 2.65-4.13 2.53zM2065.754 457.421c.04 4.72-2.939 7.55-6.779 6.49-1.85-.51-2.971-1.58-2.921-3.57.06-2.26-.789-4.08-2.409-5.61-1.23-1.15-2.15-2.53-1.38-4.26.8-1.79 2.42-2.46 4.33-2.53 4.79-.19 9.119 4.29 9.159 9.48zM2040.424 443.401c.04 4.32-2.46 7.05-6.1 6.6-2.18-.27-3.63-1.33-3.61-3.74.01-2.24-.78-4.1-2.42-5.61-1.27-1.17-2.12-2.55-1.36-4.25.8-1.79 2.49-2.44 4.34-2.55 4.62-.27 9.1 4.44 9.15 9.55zM2109.835 471.081c0 4.74-2.88 7.38-6.8 6.31-1.88-.51-2.93-1.67-2.84-3.6.1-2.18-.7-3.9-2.19-5.41-1.25-1.27-2.59-2.59-1.46-4.59 1.13-2.01 3.07-2.53 5.17-2.35 4.52.4 8.12 4.74 8.12 9.64zM2050.614 484.981c.04 4.64-2.29 7.08-6.25 6.57-2.15-.28-3.47-1.4-3.4-3.63.07-2.18-.69-3.93-2.2-5.43-1.28-1.28-2.61-2.68-1.47-4.62 1.19-2.02 3.17-2.71 5.44-2.37 4.36.64 7.84 4.88 7.88 9.48zM2040.544 415.101c-.02 4.8-3.16 7.5-7.11 6.16-1.64-.55-2.62-1.66-2.52-3.33.15-2.5-.93-4.34-2.58-6.02-1.03-1.04-1.94-2.2-1.28-3.79.72-1.71 2.16-2.5 3.94-2.68 5.06-.51 9.57 4.06 9.55 9.66zM2062.723 431.911c-.04 4.43-2.84 7.19-6.51 6.37-1.91-.42-3.24-1.47-3.18-3.63.07-2.25-.75-4.1-2.38-5.62-1.23-1.15-2.17-2.53-1.44-4.25.77-1.8 2.44-2.48 4.31-2.59 4.77-.29 9.25 4.46 9.2 9.72zM2104.693 402.811c.05 4.68-2.97 7.52-6.81 6.45-1.86-.52-2.95-1.61-2.9-3.58.06-2.26-.8-4.07-2.42-5.6-1.23-1.15-2.13-2.55-1.35-4.26.81-1.78 2.43-2.45 4.34-2.52 4.73-.17 9.08 4.35 9.14 9.51zM2107.244 439.511c.03 4.42-2.29 6.91-6.09 6.54-2.26-.22-3.64-1.34-3.59-3.71.05-2.17-.76-3.93-2.26-5.42-1.31-1.3-2.54-2.72-1.39-4.63 1.21-2 3.2-2.66 5.47-2.3 4.36.67 7.83 4.92 7.86 9.52zM2086.564 439.331c-.02 4.74-3 7.38-6.93 6.2-1.76-.53-2.83-1.63-2.72-3.45.14-2.42-.9-4.21-2.49-5.83-1.1-1.11-2.07-2.32-1.31-4.02.77-1.72 2.26-2.41 4.05-2.56 5.01-.42 9.42 4.12 9.4 9.66zM1998.614 453.711c.02 4.5-2.28 6.93-6.11 6.45-2.24-.28-3.63-1.52-3.56-3.81.07-2.21-.77-3.87-2.26-5.39-1.17-1.19-2.5-2.48-1.41-4.4 1.18-2.08 3.14-2.74 5.38-2.5 4.3.46 7.94 4.95 7.96 9.65zM2197.634 652.301c3.7.13 6.04 2.4 7.64 5.35 1.57 2.89 1.51 6.01-.34 8.85-1.25 1.92-3.19 2.34-5.32 1.86-2.21-.5-3.26-2.02-3.16-4.21.09-2.03-.8-3.53-2.13-4.91-1.18-1.22-2.48-2.47-1.52-4.38.98-1.93 2.74-2.58 4.83-2.56zM2212.555 627.541c0 4.48-2.64 7.23-6.3 6.51-2-.4-3.48-1.47-3.34-3.73.14-2.31-.83-4.01-2.38-5.57-1.12-1.14-2.27-2.42-1.43-4.21.88-1.87 2.56-2.55 4.53-2.6 4.73-.12 8.91 4.38 8.92 9.6zM2192.395 680.341c.02 4.5-2.28 6.93-6.11 6.45-2.24-.28-3.63-1.52-3.56-3.81.07-2.21-.77-3.87-2.26-5.39-1.17-1.19-2.5-2.48-1.41-4.4 1.18-2.08 3.14-2.74 5.38-2.5 4.29.46 7.94 4.95 7.96 9.65zM1532.415 95.361c.02 4.33-2.82 7.18-6.45 6.48-2.07-.4-3.44-1.6-3.39-3.73.05-2.38-.84-4.19-2.47-5.81-1.01-1-2.04-2.1-1.34-3.75.77-1.82 2.26-2.65 4.13-2.81 4.83-.42 9.5 4.32 9.52 9.62zM1469.625 127.671c3.7.13 6.04 2.4 7.64 5.35 1.57 2.89 1.51 6.01-.34 8.85-1.25 1.92-3.19 2.34-5.32 1.86-2.21-.5-3.26-2.02-3.16-4.21.09-2.03-.8-3.53-2.13-4.91-1.18-1.22-2.48-2.47-1.52-4.38.98-1.93 2.74-2.58 4.83-2.56zM1544.685 102.962c2.51.2 4.84 2.37 6.38 5.25 1.55 2.89 1.54 6.02-.3 8.86-1.3 2-3.31 2.4-5.56 1.84-2.15-.54-3.02-2.06-2.94-4.11.08-2.02-.79-3.531-2.1-4.931-1.13-1.21-2.57-2.38-1.58-4.35 1.04-2.05 2.87-2.679 6.1-2.559zM1484.355 176.391c-3.16-.04-4.72-1.26-4.75-4-.02-2.21-.86-3.85-2.29-5.37-1.03-1.09-2.16-2.16-1.51-3.94.67-1.83 2.21-2.48 3.87-2.82 2.92-.6 6.97 1.89 8.75 5.24 1.55 2.91 1.18 7.45-.78 9.48-.97 1.02-2.18 1.51-3.29 1.41zM1501.735 89.771c.06 4.64-2.2 7.07-6.15 6.63-2.25-.25-3.59-1.44-3.5-3.77.08-2.19-.77-3.88-2.26-5.38-1.28-1.28-2.55-2.68-1.37-4.61 1.22-2 3.22-2.63 5.45-2.33 4.19.55 7.78 4.94 7.83 9.46zM1484.545 102.912c0 4.47-2.639 7.23-6.299 6.51-2-.4-3.481-1.47-3.341-3.73.14-2.31-.83-4.011-2.38-5.571-1.12-1.14-2.27-2.419-1.43-4.209.88-1.87 2.561-2.55 4.531-2.6 4.73-.13 8.919 4.38 8.919 9.6zM1540.006 188.561c-3.18-.01-4.67-1.22-4.72-4.18-.04-2.12-.86-3.73-2.26-5.15-1.26-1.27-2.24-2.66-1.28-4.47 1.03-1.93 2.93-2.52 4.94-2.4 6.15.38 10.43 8.28 7.45 13.67-.93 1.68-2.32 2.64-4.13 2.53zM1531.526 159.411c.04 4.72-2.94 7.55-6.78 6.49-1.85-.51-2.97-1.58-2.92-3.57.06-2.26-.79-4.08-2.41-5.61-1.23-1.15-2.15-2.53-1.38-4.26.8-1.79 2.42-2.46 4.33-2.53 4.79-.18 9.12 4.3 9.16 9.48zM1506.205 145.401c.04 4.32-2.46 7.05-6.1 6.6-2.18-.27-3.63-1.33-3.61-3.74.01-2.24-.78-4.1-2.42-5.61-1.27-1.17-2.12-2.55-1.36-4.25.8-1.79 2.49-2.44 4.34-2.55 4.61-.27 9.09 4.44 9.15 9.55zM1575.606 173.081c0 4.74-2.88 7.38-6.8 6.31-1.88-.51-2.93-1.67-2.84-3.6.1-2.18-.7-3.9-2.19-5.41-1.25-1.27-2.59-2.59-1.46-4.59 1.13-2.01 3.07-2.53 5.17-2.35 4.52.4 8.12 4.74 8.12 9.64zM1516.386 186.981c.04 4.64-2.29 7.08-6.25 6.57-2.15-.28-3.47-1.4-3.4-3.63.07-2.18-.691-3.93-2.201-5.43-1.28-1.28-2.609-2.68-1.469-4.62 1.19-2.02 3.17-2.71 5.44-2.37 4.36.64 7.85 4.87 7.88 9.48zM1506.315 117.102c-.02 4.8-3.16 7.499-7.11 6.159-1.64-.55-2.62-1.66-2.52-3.33.15-2.5-.93-4.34-2.58-6.02-1.03-1.04-1.94-2.2-1.28-3.79.72-1.71 2.16-2.5 3.94-2.68 5.06-.51 9.57 4.061 9.55 9.661zM1528.494 133.911c-.04 4.43-2.84 7.19-6.51 6.37-1.91-.42-3.24-1.47-3.18-3.63.07-2.25-.75-4.1-2.38-5.62-1.23-1.15-2.17-2.53-1.44-4.25.77-1.8 2.44-2.48 4.31-2.59 4.77-.3 9.25 4.45 9.2 9.72zM1570.465 104.811c.05 4.68-2.97 7.52-6.81 6.45-1.86-.52-2.95-1.61-2.9-3.58.06-2.26-.8-4.07-2.42-5.6-1.23-1.15-2.13-2.55-1.35-4.26.81-1.78 2.43-2.45 4.34-2.52 4.73-.17 9.08 4.35 9.14 9.51zM1573.015 141.511c.03 4.42-2.29 6.91-6.09 6.54-2.26-.22-3.64-1.34-3.59-3.71.05-2.17-.76-3.93-2.26-5.42-1.31-1.3-2.54-2.72-1.39-4.63 1.21-2 3.2-2.66 5.47-2.3 4.37.67 7.83 4.91 7.86 9.52zM1552.336 141.331c-.02 4.74-3 7.38-6.93 6.2-1.76-.53-2.83-1.63-2.72-3.45.14-2.42-.9-4.21-2.49-5.83-1.1-1.11-2.07-2.32-1.31-4.02.77-1.72 2.26-2.41 4.05-2.56 5.01-.42 9.42 4.12 9.4 9.66zM1464.385 155.711c.02 4.5-2.28 6.93-6.11 6.45-2.24-.28-3.63-1.52-3.56-3.81.07-2.21-.77-3.87-2.26-5.39-1.17-1.19-2.5-2.48-1.41-4.4 1.18-2.08 3.14-2.74 5.38-2.5 4.3.46 7.94 4.94 7.96 9.65z" fill="#52926C"/><path d="M1469.774 680.331c.02 4.33-2.82 7.18-6.45 6.48-2.07-.4-3.44-1.6-3.39-3.73.05-2.38-.84-4.19-2.47-5.81-1.01-1-2.04-2.1-1.34-3.75.77-1.82 2.26-2.65 4.13-2.81 4.83-.42 9.5 4.31 9.52 9.62zM1406.996 712.631c3.7.13 6.04 2.4 7.64 5.35 1.57 2.89 1.51 6.01-.34 8.85-1.25 1.92-3.19 2.34-5.32 1.86-2.21-.5-3.26-2.02-3.16-4.21.09-2.03-.8-3.53-2.13-4.91-1.18-1.22-2.48-2.47-1.52-4.38.98-1.93 2.74-2.58 4.83-2.56zM1482.044 687.921c2.51.2 4.84 2.37 6.38 5.25 1.55 2.89 1.54 6.02-.3 8.86-1.3 2-3.31 2.4-5.56 1.84-2.15-.54-3.02-2.06-2.94-4.11.08-2.02-.79-3.53-2.1-4.93-1.13-1.21-2.57-2.38-1.58-4.35 1.05-2.04 2.87-2.68 6.1-2.56zM1421.724 761.361c-3.16-.04-4.72-1.26-4.75-4-.02-2.21-.86-3.85-2.29-5.37-1.03-1.09-2.16-2.16-1.51-3.94.67-1.83 2.21-2.48 3.87-2.82 2.92-.6 6.97 1.89 8.75 5.24 1.55 2.91 1.18 7.45-.78 9.48-.98 1.02-2.18 1.51-3.29 1.41zM1439.104 674.741c.06 4.64-2.2 7.07-6.15 6.63-2.25-.25-3.59-1.44-3.5-3.77.08-2.19-.77-3.88-2.26-5.38-1.28-1.28-2.55-2.68-1.37-4.61 1.22-2 3.22-2.63 5.45-2.33 4.19.55 7.77 4.93 7.83 9.46zM1421.905 687.881c0 4.48-2.64 7.23-6.3 6.51-2-.4-3.48-1.47-3.34-3.73.14-2.31-.83-4.01-2.38-5.57-1.12-1.14-2.27-2.42-1.43-4.21.88-1.87 2.56-2.55 4.53-2.6 4.74-.13 8.92 4.38 8.92 9.6zM1477.365 773.521c-3.18-.01-4.67-1.22-4.72-4.18-.04-2.12-.86-3.73-2.26-5.15-1.26-1.27-2.24-2.66-1.28-4.47 1.03-1.93 2.93-2.52 4.94-2.4 6.15.38 10.43 8.28 7.45 13.67-.93 1.68-2.31 2.65-4.13 2.53zM1468.895 744.381c.04 4.72-2.94 7.55-6.78 6.49-1.85-.51-2.97-1.58-2.92-3.57.06-2.26-.79-4.08-2.41-5.61-1.23-1.15-2.15-2.53-1.38-4.26.8-1.79 2.42-2.46 4.33-2.53 4.78-.19 9.12 4.3 9.16 9.48zM1443.564 730.371c.04 4.32-2.46 7.05-6.1 6.6-2.18-.27-3.63-1.33-3.61-3.74.01-2.24-.78-4.1-2.42-5.61-1.27-1.17-2.12-2.55-1.36-4.25.8-1.79 2.49-2.44 4.34-2.55 4.61-.28 9.1 4.43 9.15 9.55zM1512.975 758.041c0 4.74-2.88 7.38-6.8 6.31-1.88-.51-2.93-1.67-2.84-3.6.1-2.18-.7-3.9-2.19-5.41-1.25-1.27-2.59-2.59-1.46-4.59 1.13-2.01 3.07-2.53 5.17-2.35 4.52.41 8.12 4.75 8.12 9.64zM1453.755 771.941c.04 4.64-2.29 7.08-6.25 6.57-2.15-.28-3.47-1.4-3.4-3.63.07-2.18-.69-3.93-2.2-5.43-1.28-1.28-2.61-2.68-1.47-4.62 1.19-2.02 3.17-2.71 5.44-2.37 4.36.65 7.84 4.88 7.88 9.48zM1443.675 702.071c-.02 4.8-3.16 7.5-7.11 6.16-1.64-.55-2.62-1.66-2.52-3.33.15-2.5-.93-4.34-2.58-6.02-1.03-1.04-1.94-2.2-1.28-3.79.72-1.71 2.16-2.5 3.94-2.68 5.07-.51 9.58 4.05 9.55 9.66zM1465.854 718.871c-.04 4.43-2.84 7.19-6.51 6.37-1.91-.42-3.24-1.47-3.18-3.63.07-2.25-.75-4.1-2.38-5.62-1.23-1.15-2.17-2.53-1.44-4.25.77-1.8 2.44-2.48 4.31-2.59 4.77-.29 9.25 4.46 9.2 9.72zM1507.824 689.781c.05 4.68-2.97 7.52-6.81 6.45-1.86-.52-2.95-1.61-2.9-3.58.06-2.26-.8-4.07-2.42-5.6-1.23-1.15-2.13-2.55-1.35-4.26.81-1.78 2.43-2.45 4.34-2.52 4.74-.18 9.09 4.34 9.14 9.51zM1510.384 726.471c.03 4.42-2.29 6.91-6.09 6.54-2.26-.22-3.64-1.34-3.59-3.71.05-2.17-.76-3.93-2.26-5.42-1.31-1.3-2.54-2.72-1.39-4.63 1.21-2 3.2-2.66 5.47-2.3 4.36.68 7.82 4.92 7.86 9.52zM1489.695 726.291c-.02 4.74-3 7.38-6.93 6.2-1.76-.53-2.83-1.63-2.72-3.45.14-2.41-.9-4.21-2.49-5.83-1.1-1.11-2.07-2.32-1.31-4.02.77-1.72 2.26-2.41 4.05-2.56 5.02-.41 9.43 4.12 9.4 9.66zM1401.745 740.671c.02 4.5-2.28 6.93-6.11 6.45-2.24-.28-3.63-1.52-3.56-3.81.07-2.21-.77-3.87-2.26-5.39-1.17-1.19-2.5-2.48-1.41-4.4 1.18-2.08 3.14-2.74 5.38-2.5 4.3.46 7.95 4.95 7.96 9.65z" fill="#E89FC0"/></g></svg>