<?xml version="1.0" encoding="UTF-8" standalone="no"?><!-- Generator: Gravit.io --><svg xmlns="http://www.w3.org/2000/svg" xmlns:xlink="http://www.w3.org/1999/xlink" style="isolation:isolate" viewBox="0 0 100 100" width="100pt" height="100pt"><defs><clipPath id="_clipPath_9OX1wzCm3A0vDBzWLsRlUjN9bl586VjR"><rect width="100" height="100"/></clipPath></defs><g clip-path="url(#_clipPath_9OX1wzCm3A0vDBzWLsRlUjN9bl586VjR)"><g opacity="0.41"><path d=" M 72.577 30.536 C 71.961 37.238 71.391 43.508 70.806 49.901 C 65.999 49.901 61.362 49.901 56.37 49.901 C 56.37 58.098 56.37 66.186 56.37 74.258 C 56.37 82.285 56.37 90.311 56.37 98.446 C 49.869 98.446 43.568 98.446 37.067 98.446 C 37.067 82.377 37.067 66.309 37.067 50.056 C 33.77 50.056 30.673 50.056 27.423 50.056 C 27.423 43.523 27.423 37.176 27.423 30.582 C 30.457 30.582 33.554 30.582 36.882 30.582 C 36.882 27.64 36.728 24.928 36.928 22.232 C 37.144 19.475 37.359 16.624 38.176 14.006 C 40.425 6.842 45.555 2.513 52.935 1.85 C 59.251 1.265 65.66 1.727 72.177 1.727 C 72.177 7.042 72.177 12.434 72.177 18.057 C 68.88 18.057 65.645 18.057 62.41 18.057 C 58.543 18.057 57.156 19.46 57.125 23.373 C 57.11 25.684 57.125 27.995 57.125 30.521 C 62.348 30.536 67.355 30.536 72.577 30.536 Z " fill="rgb(255,255,255)"/></g></g></svg>