<svg xmlns="http://www.w3.org/2000/svg" style="isolation:isolate" viewBox="0 0 100 100" width="100pt" height="100pt"><defs><clipPath id="a"><path d="M0 0h100v100H0z"/></clipPath></defs><g clip-path="url(#a)"><path d="M72.577 30.536c-.616 6.702-1.186 12.972-1.771 19.365H56.37v48.545H37.067v-48.39h-9.644V30.582h9.459c0-2.942-.154-5.654.046-8.35.216-2.757.431-5.608 1.248-8.226C40.425 6.842 45.555 2.513 52.935 1.85c6.316-.585 12.725-.123 19.242-.123v16.33H62.41c-3.867 0-5.254 1.403-5.285 5.316-.015 2.311 0 4.622 0 7.148 5.223.015 10.23.015 15.452.015z" fill="#FFF" opacity=".41"/></g></svg>