<svg width="38" height="39" fill="none" xmlns="http://www.w3.org/2000/svg"><path d="M19.01 38.239c-10.34 0-18.75-8.41-18.75-18.75S8.67.739 19.01.739s18.75 8.41 18.75 18.75-8.42 18.75-18.75 18.75zm0-36.42c-9.74 0-17.67 7.93-17.67 17.67 0 9.74 7.93 17.67 17.67 17.67 9.74 0 17.67-7.93 17.67-17.67 0-9.74-7.93-17.67-17.67-17.67z" fill="#52926C"/><path d="M20.97 10.089c0 2.52-1.97 4.56-1.97 4.56s-1.97-2.04-1.97-4.56c0-2.52 1.97-4.56 1.97-4.56s1.97 2.05 1.97 4.56z" fill="#52926C"/><path d="M19.01 14.849l-.1-.1c-.08-.09-2-2.11-2-4.65 0-2.54 1.92-4.57 2-4.65l.1-.1.1.1c.08.09 2 2.11 2 4.65 0 2.54-1.92 4.57-2 4.65l-.1.1zm0-9.11c-.39.45-1.83 2.25-1.83 4.36 0 2.11 1.44 3.91 1.83 4.36.39-.45 1.83-2.25 1.83-4.36 0-2.12-1.44-3.92-1.83-4.36zM24.06 17.369c-1.73 1.83-4.52 2-4.52 2s-.29-2.76 1.44-4.59 4.71-1.95 4.71-1.95.1 2.72-1.63 4.54z" fill="#52926C"/><path d="M19.42 19.509l-.01-.13c-.01-.11-.27-2.84 1.48-4.7 1.75-1.85 4.68-1.99 4.8-2l.14-.01v.13c0 .11.08 2.8-1.67 4.64-1.75 1.85-4.49 2.03-4.61 2.04l-.13.03zm6.14-6.54c-.6.05-3.02.36-4.48 1.9-1.46 1.54-1.45 3.79-1.42 4.35.57-.06 2.84-.4 4.3-1.94 1.45-1.53 1.59-3.73 1.6-4.31zM24.06 23.809c-1.73 1.83-4.52 2-4.52 2s-.29-2.76 1.44-4.59 4.71-1.95 4.71-1.95.1 2.71-1.63 4.54z" fill="#52926C"/><path d="M19.42 25.949l-.01-.13c-.01-.11-.27-2.84 1.48-4.7 1.75-1.85 4.68-1.99 4.8-2l.14-.01v.13c0 .11.08 2.8-1.67 4.64-1.75 1.85-4.49 2.03-4.61 2.04l-.13.03zm6.14-6.54c-.6.05-3.02.36-4.48 1.9-1.46 1.54-1.45 3.79-1.42 4.35.57-.06 2.84-.4 4.3-1.94 1.45-1.54 1.59-3.74 1.6-4.31zM24.06 30.349c-1.73 1.83-4.52 2-4.52 2s-.29-2.76 1.44-4.59 4.71-1.95 4.71-1.95.1 2.71-1.63 4.54z" fill="#52926C"/><path d="M19.42 32.489l-.01-.13c-.01-.11-.27-2.85 1.48-4.7s4.68-1.99 4.8-2l.14-.01v.13c0 .11.08 2.8-1.67 4.64-1.75 1.85-4.49 2.03-4.61 2.04l-.13.03zm6.14-6.54c-.6.05-3.02.36-4.48 1.9-1.46 1.54-1.45 3.79-1.42 4.35.57-.06 2.84-.4 4.3-1.94 1.45-1.53 1.59-3.74 1.6-4.31zM13.86 17.369c1.73 1.83 4.52 2 4.52 2s.29-2.76-1.44-4.59-4.71-1.95-4.71-1.95-.1 2.72 1.63 4.54z" fill="#52926C"/><path d="M18.5 19.509l-.13-.01c-.12-.01-2.86-.19-4.61-2.04-1.75-1.85-1.68-4.53-1.67-4.64v-.13l.14.01c.12.01 3.06.15 4.8 2 1.75 1.85 1.49 4.58 1.48 4.7l-.01.11zm-6.14-6.54c.01.57.15 2.78 1.6 4.31 1.46 1.54 3.73 1.88 4.3 1.94.03-.57.04-2.81-1.42-4.35-1.46-1.54-3.88-1.84-4.48-1.9zM13.86 23.809c1.73 1.83 4.52 2 4.52 2s.29-2.76-1.44-4.59-4.71-1.95-4.71-1.95-.1 2.71 1.63 4.54z" fill="#52926C"/><path d="M18.5 25.949l-.13-.01c-.12-.01-2.86-.19-4.61-2.04-1.75-1.85-1.68-4.53-1.67-4.64v-.13l.14.01c.12.01 3.06.15 4.8 2 1.75 1.85 1.49 4.58 1.48 4.7l-.01.11zm-6.14-6.54c.01.57.15 2.78 1.6 4.31 1.46 1.54 3.73 1.88 4.3 1.94.03-.57.04-2.81-1.42-4.35-1.46-1.55-3.88-1.85-4.48-1.9zM13.86 30.349c1.73 1.83 4.52 2 4.52 2s.29-2.76-1.44-4.59-4.71-1.95-4.71-1.95-.1 2.71 1.63 4.54z" fill="#52926C"/><path d="M18.5 32.489l-.13-.01c-.12-.01-2.86-.2-4.61-2.04-1.75-1.85-1.68-4.53-1.67-4.64v-.13l.14.01c.12.01 3.06.15 4.8 2 1.75 1.85 1.49 4.58 1.48 4.7l-.01.11zm-6.14-6.54c.01.57.15 2.78 1.6 4.31 1.46 1.54 3.73 1.88 4.3 1.94.03-.57.04-2.82-1.42-4.35-1.46-1.54-3.88-1.85-4.48-1.9zM31.442 6.215l-5.193 5.216.765.762 5.193-5.215-.765-.763zM10.117 27.624l-4.375 4.393.766.762 4.374-4.393-.765-.762z" fill="#52926C"/></svg>