<svg xmlns="http://www.w3.org/2000/svg" xmlns:xlink="http://www.w3.org/1999/xlink" style="isolation:isolate" viewBox="0 0 100 100"><defs><clipPath id="_clipPath_J152c6FLJIpG3xJYMPQc74RfYGkLKjM1"><rect width="100" height="100"/></clipPath></defs><g clip-path="url(#_clipPath_J152c6FLJIpG3xJYMPQc74RfYGkLKjM1)"><g><path d="M 6.695 16.355 L 93.305 16.355 C 96.724 16.355 99.5 19.131 99.5 22.551 L 99.5 22.551 C 99.5 25.97 96.724 28.746 93.305 28.746 L 6.695 28.746 C 3.276 28.746 0.5 25.97 0.5 22.551 L 0.5 22.551 C 0.5 19.131 3.276 16.355 6.695 16.355 Z" style="stroke:none;fill:#52926C;stroke-miterlimit:10;"/><path d="M 6.695 43.805 L 93.305 43.805 C 96.724 43.805 99.5 46.581 99.5 50 L 99.5 50 C 99.5 53.419 96.724 56.195 93.305 56.195 L 6.695 56.195 C 3.276 56.195 0.5 53.419 0.5 50 L 0.5 50 C 0.5 46.581 3.276 43.805 6.695 43.805 Z" style="stroke:none;fill:#52926C;stroke-miterlimit:10;"/><path d="M 6.695 71.254 L 93.305 71.254 C 96.724 71.254 99.5 74.03 99.5 77.449 L 99.5 77.449 C 99.5 80.869 96.724 83.645 93.305 83.645 L 6.695 83.645 C 3.276 83.645 0.5 80.869 0.5 77.449 L 0.5 77.449 C 0.5 74.03 3.276 71.254 6.695 71.254 Z" style="stroke:none;fill:#52926C;stroke-miterlimit:10;"/></g></g></svg>