<svg viewBox="0 0 460 558" fill="none" xmlns="http://www.w3.org/2000/svg"><path d="M459.169 364.74c2.02 34.81-10.95 65.56-33.36 92.63-20.9 25.26-44.75 47.34-71.13 66.58-46.38 33.83-97.38 41.02-152.06 27.66-65.76-16.07-114.47-56.83-154.36-110.38-30.11-40.42-45.35-86.4-47.46-136.79-.49-11.59.55-24.02 4.23-34.89 25.71-76.03 79.61-121.24 154.51-140.88 32.17-8.43 61.05 4.74 85.19 25.61 16.53 14.29 30.89 31.56 44.44 48.94 13.67 17.53 26.8 34.96 49.74 39.7 9.15 1.89 18.66 2.94 27.98 2.81 28.22-.39 49.91 12.73 65.66 34.89 17.3 24.36 29.39 51.36 26.62 84.12z" fill="#52926C"/><path d="M104.219 368.08c-6.23 0-12.47.08-18.7-.04-2.19-.04-2.82.72-2.77 2.89.12 6.02.1 12.04.01 18.05-.03 1.88.67 2.57 2.43 2.5 1.64-.06 3.28.06 4.92-.02 1.62-.07 2.15.66 2.14 2.25-.08 6.59.55 5.38-5.09 5.44-5.66.07-11.32-.05-16.98.05-1.96.04-2.8-.46-2.73-2.64.18-5.84-.6-5.14 5-5.03 2.57.05 3.22-.99 3.21-3.39-.07-13.96-.01-27.92-.04-41.87-.02-6.6-1.82-8.42-8.31-8.69-7.03-.29-12.09-3.81-13.82-9.62-1.34-4.49 1.57-8.32 5.82-7.65 2.52.4 4.3 2.9 4.38 6.14.07 3.05.34 3.39 3.38 3.41 7.55.05 15.09.07 22.64-.01 1.91-.02 2.62.56 2.57 2.56-.14 5.92.54 5.1-4.93 5.17h-.98c-3.55.02-3.56.02-3.56 3.57 0 5.6.06 11.2-.03 16.8-.03 1.86.63 2.51 2.42 2.5 12.8-.04 25.59-.04 38.39 0 1.75.01 2.51-.61 2.49-2.48-.07-5.93-.08-11.87.01-17.8.03-2.03-.83-2.66-2.65-2.59-1.8.07-3.63.16-5.4-.08-.66-.09-1.2-1.11-1.77-1.73-.08-.09-.02-.32-.01-.49.07-6.39-.72-5.31 5.13-5.37 5.74-.06 11.48.05 17.22-.05 1.85-.03 2.59.65 2.37 2.48-.01.08 0 .17 0 .25-.04 5.76.52 5.03-4.8 4.97-2.31-.03-3.15.71-3.14 3.16.09 15.88.07 31.76.01 47.64-.01 2.16.47 3.19 2.86 3.19 5.44-.02 5.4.09 5.09 5.69-.07 1.34-.47 1.98-1.87 1.97-6.97-.03-13.94-.04-20.92.01-1.54.01-1.99-.66-1.97-2.12.11-6.56-.73-5.51 5.22-5.58 4.6-.05 4.61-.01 4.61-4.58v-15.3c0-3.52-.01-3.52-3.36-3.53-6.18-.04-12.34-.03-18.49-.03zM182.059 362.76c.29-4.47-2.05-7.9-6.42-8.98-5.42-1.34-10.86-1.2-16.22.64-1.67.57-2.17 1.32-1.6 3.13.38 1.21.38 2.68.11 3.93a5.187 5.187 0 01-5.71 4.06c-2.4-.29-4.3-2.44-4.46-5.22-.31-5.2 1.95-9.19 6.28-11.61 2.66-1.49 5.76-2.51 8.77-2.96 5.11-.77 10.31-.79 15.33.81 6.85 2.19 11.25 8.01 11.5 15.55.3 8.85.42 17.7.42 26.56 0 2.38.77 3.07 2.96 2.96 1.11-.06 3.15.31 3.22.75.33 2.01.16 4.12.02 6.19-.02.24-.94.58-1.45.59-3.44.05-6.89 0-10.33.04-1.46.02-1.81-.75-1.78-2.05.05-2.16.01-4.31.01-7.17-1.65 1.34-2.83 2.27-3.97 3.24-6.65 5.61-14.43 7.02-22.67 5.75-6.84-1.06-10.9-5.28-11.65-11.74-.66-5.75 1.31-11.79 7.5-15.44 5.62-3.32 11.87-4.71 18.07-6.26 3.95-1.01 7.96-1.84 12.07-2.77zm.52 7.76c-4.14.93-8.01 1.54-11.72 2.68-5.29 1.64-10.59 3.38-15.65 5.64-3.18 1.42-4.2 4.81-3.47 8.08.54 2.42 3.05 4.3 6.39 4.61 6.99.64 13.32-1.13 18.81-5.67 4.67-3.86 5.95-9.06 5.64-15.34zM297.859 380.51c2.13 4.84 5.52 8.1 10.21 9.64 7.01 2.3 13.4.8 19.01-4.1 1.08-.94 1.49-1.74.4-3.11-1.39-1.75-1.58-3.87-.43-5.86 1.08-1.87 2.86-2.46 4.89-2.05 2.27.45 3.42 2.04 3.96 4.27.94 3.89.06 7.38-2.56 10.21-7.33 7.94-16.33 11.25-26.72 8.11-10.3-3.11-15.72-11.14-17.54-21.54-2.11-12.03 2.03-21.66 11.27-27.11 6.78-4 14.12-4.89 21.57-2.51 7.69 2.46 11.93 8.09 12.96 16.27.83 6.63.87 6.6-5.5 8.43-9.76 2.81-19.51 5.65-29.27 8.49-.68.2-1.34.51-2.25.86zm16.69-28.01c-.06-.22-.13-.43-.19-.65-3.33 1.04-6.81 1.72-9.94 3.18-6.35 2.96-9.99 9.64-9.39 16.22.16 1.7.67 2.67 2.63 2.1 9.61-2.77 19.22-5.53 28.85-8.2 1.83-.51 2.1-1.41 1.68-3.1-1.52-5.96-6.58-9.55-13.64-9.55zM366.019 372.62c.36-6.99 1.94-13.47 6.19-19.02 9.39-12.26 27.86-11.71 36.6 1.02 7.19 10.48 6.86 26.85-.86 36.08-6.1 7.3-14.04 9.62-23.04 7.71-9.45-2.01-14.98-8.47-17.53-17.7-.73-2.61-.92-5.39-1.36-8.09zm30.93-17.47c-1.49-.94-2.74-2.14-4.2-2.56-4.85-1.4-9.32-.26-12.94 3.28-8.39 8.2-10.06 24.16 2.01 32.39 8.03 5.48 19.08 5.32 24.19-5.47 2.36-4.99 2.15-10.37-3.06-13.29-1.27-.71-2.7-1.21-4.12-1.52-6.16-1.33-7.14-7.31-3.37-10.89.46-.44.8-1.03 1.49-1.94zM215.549 360.14c.65-1.02 1.31-2.04 1.95-3.07 3.44-5.5 7.62-10.04 14.23-11.48 9.75-2.12 17.78 6.11 15.54 15.95-.78 3.42-3.31 5.32-6.14 4.6-2.89-.73-4.46-3.9-3.52-7.17.21-.72.52-1.41.84-2.08.99-2.04.65-2.95-1.54-3.59-2.63-.78-5.32-.25-7.18 1.52-2.84 2.69-5.61 5.64-7.66 8.96-4.57 7.4-6.7 15.7-7.27 24.41-.2 3.02.04 3.23 3.09 3.28 3.32.05 3.32.05 3.32 3.51 0 .84.2 1.75-.07 2.48-.25.67-1.01 1.61-1.56 1.63-5.57.12-11.15.1-16.72.02-.53-.01-1.45-.72-1.5-1.18-.17-1.73-.24-3.53.06-5.23.09-.53 1.44-1.12 2.25-1.17 4.03-.26 4.04-.2 4.04-4.28 0-9.02.01-18.05 0-27.07-.01-4.82-1.45-6.54-6.12-6.9-1.87-.14-2.34-.95-2.32-2.67.06-6.16-.36-5.09 4.91-5.17 2.79-.04 5.58.07 8.36-.03 1.73-.07 2.31.61 2.26 2.34-.09 3.26-.03 6.52-.02 9.77 0 .8.08 1.61.12 2.41.2.07.43.14.65.21zM287.059 388.04c.79 2.19 1.57 4.11 2.13 6.09.13.47-.34 1.5-.77 1.68-6.87 2.8-13.89 4.65-21.23 2.07-6.16-2.17-9.59-7.83-9.64-15.64-.05-7.52-.01-15.04-.02-22.57-.01-4.21-1.19-5.53-5.34-6.21-.54-.09-1.4-.6-1.43-.97-.14-1.99-.19-4.02.03-6 .05-.43 1.35-.98 2.1-1.02 4.64-.23 4.64-.18 4.64-4.88 0-2.93.04-5.85-.01-8.78-.02-1.38.52-1.96 1.89-1.95 6.67.08 5.67-.73 5.75 5.34.03 2.51.07 5.02-.01 7.52-.06 1.97.58 2.82 2.69 2.75 4.34-.15 8.69.01 13.04-.07 1.66-.03 2.37.48 2.33 2.28-.16 6.96.83 5.7-5.47 5.8-3.44.06-6.89.08-10.33-.02-1.62-.05-2.24.6-2.22 2.16.11 9.69.1 19.38.34 29.07.1 3.84 2.78 6.14 6.6 6.39 4.41.28 8.64-.49 12.73-2.16.59-.24 1.19-.48 2.2-.88zM354.679 360.76c0 9.03-.01 18.05 0 27.08 0 3.46.14 3.51 3.4 3.67 1.11.05 3.06.45 3.13.93.3 2.02.1 4.13-.09 6.19-.02.23-1.13.51-1.73.51-5.41.04-10.83-.01-16.24.04-1.51.02-2.11-.61-1.99-2.09.03-.33 0-.67 0-1-.02-4.35-.02-4.4 4.2-4.6 1.67-.08 2.28-.72 2.28-2.44-.04-14.13.01-28.25-.05-42.38-.02-3.99-2.43-7.47-6.14-8.46-2.06-.55-2.3-1.63-2.27-3.4.11-5.74-.58-4.87 4.85-4.94 2.71-.03 5.42.1 8.12-.04 1.95-.1 2.57.62 2.56 2.59-.08 9.45-.04 18.9-.03 28.34zM180.779 335.43c.02 2.88-2.09 5.35-4.68 5.47-2.49.11-4.75-2.37-4.79-5.27-.05-3.07 2.09-5.59 4.73-5.58 2.54 0 4.72 2.48 4.74 5.38zM397.019 340.88c-2.68-.32-4.89-3.22-4.51-5.91.42-2.97 2.79-5.14 5.3-4.84 2.49.3 4.71 3.2 4.42 5.77-.34 2.94-2.77 5.27-5.21 4.98zM154.549 335.37c.04-3.07 2-5.17 4.78-5.13 2.7.04 4.72 2.31 4.7 5.29-.02 2.84-2.25 5.38-4.74 5.4-2.63.02-4.78-2.5-4.74-5.56zM380.269 340.89c-2.63-.3-4.84-3.15-4.55-5.88.31-3.01 2.75-5.09 5.53-4.72 2.42.32 4.42 3 4.2 5.62-.26 2.84-2.77 5.26-5.18 4.98z" fill="#fff"/><path d="M265.079 32.72c.04 9.34-6.09 15.5-13.92 13.99-4.47-.86-7.42-3.45-7.32-8.06.11-5.15-1.82-9.04-5.34-12.54-2.18-2.16-4.39-4.53-2.89-8.09 1.66-3.93 4.87-5.71 8.92-6.07 10.43-.91 20.51 9.31 20.55 20.77zM129.579 102.44c7.99.27 13.04 5.18 16.5 11.56 3.38 6.24 3.26 12.96-.74 19.11-2.7 4.15-6.88 5.06-11.49 4-4.77-1.09-7.03-4.37-6.82-9.09.2-4.39-1.73-7.62-4.59-10.59-2.55-2.63-5.34-5.34-3.27-9.44 2.09-4.19 5.9-5.6 10.41-5.55zM291.559 49.1c5.41.44 10.44 5.11 13.78 11.34 3.34 6.23 3.31 13-.66 19.12-2.8 4.32-7.15 5.18-11.99 3.97-4.64-1.16-6.51-4.44-6.35-8.86.16-4.36-1.7-7.62-4.53-10.64-2.44-2.61-5.54-5.14-3.4-9.38 2.24-4.43 6.18-5.8 13.15-5.55zM161.369 207.6c-6.83-.08-10.18-2.72-10.24-8.64-.05-4.76-1.85-8.32-4.93-11.6-2.22-2.36-4.67-4.65-3.26-8.51 1.44-3.96 4.78-5.34 8.35-6.08 6.29-1.3 15.04 4.09 18.89 11.32 3.34 6.28 2.55 16.08-1.68 20.47-2.13 2.2-4.74 3.25-7.13 3.04zM198.879 20.65c.12 10.02-4.75 15.26-13.27 14.3-4.86-.55-7.74-3.11-7.56-8.14.17-4.72-1.66-8.38-4.88-11.6-2.76-2.76-5.5-5.78-2.95-9.95 2.64-4.32 6.94-5.67 11.76-5.03 9.04 1.19 16.78 10.66 16.9 20.42zM161.759 49.01c0 9.66-5.7 15.61-13.61 14.05-4.31-.85-7.5-3.17-7.21-8.04.3-4.98-1.79-8.65-5.13-12.03-2.43-2.46-4.9-5.22-3.08-9.08 1.91-4.05 5.52-5.5 9.77-5.61 10.23-.29 19.26 9.44 19.26 20.71zM281.459 233.85c-6.85-.03-10.07-2.64-10.18-9.01-.08-4.59-1.85-8.05-4.88-11.11-2.72-2.75-4.84-5.74-2.76-9.64 2.22-4.16 6.32-5.44 10.66-5.18 13.28.82 22.5 17.87 16.07 29.49-1.99 3.62-4.99 5.71-8.91 5.45zM263.169 170.95c.08 10.18-6.35 16.29-14.63 14-3.98-1.1-6.4-3.42-6.29-7.71.13-4.87-1.7-8.8-5.21-12.1-2.65-2.49-4.64-5.47-2.98-9.18 1.73-3.86 5.23-5.31 9.34-5.47 10.33-.4 19.69 9.27 19.77 20.46zM208.509 140.71c.1 9.33-5.32 15.22-13.17 14.24-4.71-.59-7.82-2.88-7.79-8.06.03-4.82-1.69-8.86-5.23-12.12-2.73-2.52-4.57-5.51-2.93-9.18 1.72-3.86 5.37-5.28 9.36-5.51 9.97-.57 19.64 9.59 19.76 20.63zM358.299 200.44c0 10.23-6.21 15.93-14.68 13.61-4.05-1.11-6.33-3.6-6.14-7.76.22-4.7-1.51-8.41-4.72-11.67-2.71-2.75-5.58-5.6-3.15-9.91 2.44-4.33 6.62-5.46 11.16-5.06 9.77.86 17.54 10.22 17.53 20.79zM230.489 230.44c.08 10.02-4.94 15.28-13.49 14.18-4.63-.6-7.48-3.02-7.33-7.83.14-4.71-1.5-8.47-4.76-11.73-2.77-2.76-5.64-5.78-3.17-9.98 2.56-4.36 6.84-5.84 11.74-5.12 9.42 1.42 16.93 10.55 17.01 20.48zM208.749 79.63c-.05 10.37-6.82 16.18-15.36 13.3-3.55-1.2-5.66-3.59-5.44-7.19.32-5.4-2-9.37-5.57-12.99-2.22-2.25-4.2-4.75-2.77-8.17 1.54-3.7 4.66-5.4 8.51-5.79 10.95-1.11 20.69 8.75 20.63 20.84zM256.619 115.91c-.09 9.56-6.12 15.51-14.06 13.75-4.11-.91-6.99-3.17-6.85-7.83.14-4.86-1.61-8.84-5.14-12.13-2.67-2.49-4.69-5.45-3.11-9.17 1.66-3.89 5.27-5.35 9.3-5.6 10.31-.64 19.97 9.61 19.86 20.98zM347.209 53.11c.11 10.1-6.4 16.22-14.7 13.92-4.01-1.11-6.36-3.48-6.25-7.73.12-4.88-1.72-8.79-5.23-12.08-2.65-2.49-4.6-5.51-2.92-9.2 1.75-3.83 5.25-5.3 9.36-5.44 10.22-.38 19.61 9.38 19.74 20.53zM352.719 132.31c.07 9.55-4.94 14.92-13.13 14.11-4.87-.48-7.85-2.89-7.74-8 .1-4.69-1.64-8.48-4.87-11.7-2.82-2.81-5.48-5.88-2.99-9.99 2.61-4.31 6.9-5.74 11.8-4.97 9.38 1.46 16.85 10.61 16.93 20.55zM308.069 131.91c-.05 10.22-6.47 15.92-14.95 13.38-3.8-1.14-6.11-3.51-5.87-7.45.31-5.21-1.94-9.08-5.38-12.58-2.37-2.41-4.47-5-2.83-8.67 1.67-3.72 4.88-5.2 8.74-5.52 10.83-.9 20.35 8.89 20.29 20.84zM118.259 162.95c.04 9.71-4.92 14.96-13.18 13.93-4.84-.6-7.84-3.28-7.69-8.22.14-4.78-1.66-8.34-4.88-11.63-2.52-2.57-5.41-5.35-3.04-9.51 2.55-4.49 6.78-5.92 11.61-5.4 9.27 1 17.14 10.68 17.18 20.83z" fill="#E89FC0"/></svg>