<?xml version="1.0" encoding="UTF-8" standalone="no"?><!-- Generator: Gravit.io --><svg xmlns="http://www.w3.org/2000/svg" xmlns:xlink="http://www.w3.org/1999/xlink" style="isolation:isolate" viewBox="0 0 100 100" width="100pt" height="100pt"><defs><clipPath id="_clipPath_wW5c4JflZ3LNKBJ64ZLJobI2Juxf9Iv9"><rect width="100" height="100"/></clipPath></defs><g clip-path="url(#_clipPath_wW5c4JflZ3LNKBJ64ZLJobI2Juxf9Iv9)"><g opacity="0.41"><path d=" M 6 50.043 C 6 41.665 6 33.274 6 24.897 C 6.014 13.884 14.001 5.758 25.055 5.716 C 41.684 5.647 58.314 5.647 74.943 5.716 C 85.969 5.758 93.97 13.871 93.984 24.91 C 94.012 41.609 93.998 58.308 93.984 74.994 C 93.97 86.117 85.927 94.272 74.818 94.3 C 58.258 94.341 41.698 94.355 25.138 94.3 C 14.043 94.272 6.014 86.103 6 74.98 C 6 66.672 6 58.364 6 50.043 Z  M 86.415 50.07 C 86.415 41.624 86.429 33.176 86.415 24.729 C 86.401 18.122 81.759 13.341 75.138 13.313 C 58.383 13.257 41.628 13.257 24.874 13.313 C 18.225 13.341 13.597 18.094 13.597 24.701 C 13.583 41.526 13.583 58.351 13.597 75.175 C 13.597 81.908 18.266 86.688 24.957 86.703 C 41.642 86.744 58.328 86.744 75.013 86.703 C 81.717 86.688 86.401 81.893 86.401 75.188 C 86.415 66.825 86.415 58.448 86.415 50.07 Z " fill="rgb(255,255,255)"/></g><g opacity="0.41"><path d=" M 72.936 49.945 C 72.95 62.699 62.718 72.987 50.006 73.015 C 37.335 73.042 27.02 62.699 27.048 49.973 C 27.062 37.316 37.265 27.071 49.88 27.029 C 62.621 26.987 72.922 37.219 72.936 49.945 Z  M 49.866 65.431 C 58.369 65.487 65.381 58.56 65.423 50.07 C 65.478 41.665 58.62 34.71 50.201 34.612 C 41.573 34.514 34.492 41.484 34.519 50.029 C 34.561 58.434 41.489 65.376 49.866 65.431 Z " fill="rgb(255,255,255)"/></g><g opacity="0.41"><path d=" M 80.003 25.803 C 80.031 28.786 77.745 31.141 74.776 31.183 C 71.821 31.225 69.395 28.925 69.312 25.998 C 69.228 23.028 71.709 20.477 74.692 20.477 C 77.605 20.477 79.975 22.847 80.003 25.803 Z " fill="rgb(255,255,255)"/></g></g></svg>