<svg xmlns="http://www.w3.org/2000/svg" style="isolation:isolate" viewBox="0 0 100 100" width="100pt" height="100pt"><defs><clipPath id="a"><path d="M0 0h100v100H0z"/></clipPath></defs><g clip-path="url(#a)"><path d="M6 50.043V24.897c.014-11.013 8.001-19.139 19.055-19.181a6011.65 6011.65 0 0149.888 0c11.026.042 19.027 8.155 19.041 19.194a19908 19908 0 010 50.084C93.97 86.117 85.927 94.272 74.818 94.3c-16.56.041-33.12.055-49.68 0C14.043 94.272 6.014 86.103 6 74.98V50.043zm80.415.027c0-8.446.014-16.894 0-25.341-.014-6.607-4.656-11.388-11.277-11.416-16.755-.056-33.51-.056-50.264 0-6.649.028-11.277 4.781-11.277 11.388-.014 16.825-.014 33.65 0 50.474 0 6.733 4.669 11.513 11.36 11.528 16.685.041 33.371.041 50.056 0 6.704-.015 11.388-4.81 11.388-11.515.014-8.363.014-16.74.014-25.118z" fill="#FFF" opacity=".41"/><path d="M72.936 49.945c.014 12.754-10.218 23.042-22.93 23.07-12.671.027-22.986-10.316-22.958-23.042.014-12.657 10.217-22.902 22.832-22.944 12.741-.042 23.042 10.19 23.056 22.916zm-23.07 15.486c8.503.056 15.515-6.871 15.557-15.361.055-8.405-6.803-15.36-15.222-15.458-8.628-.098-15.709 6.872-15.682 15.417.042 8.405 6.97 15.347 15.347 15.402zM80.003 25.803c.028 2.983-2.258 5.338-5.227 5.38-2.955.042-5.381-2.258-5.464-5.185-.084-2.97 2.397-5.521 5.38-5.521 2.913 0 5.283 2.37 5.311 5.326z" fill="#FFF" opacity=".41"/></g></svg>