<svg width="38" height="38" fill="none" xmlns="http://www.w3.org/2000/svg"><path d="M19.19 37.579C8.83 37.579.4 29.149.4 18.789S8.83-.001 19.19-.001s18.79 8.43 18.79 18.79-8.43 18.79-18.79 18.79zm0-36.51c-9.77 0-17.71 7.95-17.71 17.71 0 9.76 7.95 17.71 17.71 17.71 9.77 0 17.71-7.95 17.71-17.71 0-9.76-7.94-17.71-17.71-17.71z" fill="#52926C"/><path d="M9.53 9.619c.3.16.6.3.89.46 1.85 1.06 3.2 2.6 4.25 4.43 1.01 1.79 1.68 3.71 2.23 5.67.43 1.57.78 3.16 1.1 4.76 0 .02.02.04.06.1 1.38-4.31 3.28-8.34 5.97-12.04-.36.06-.63.18-.89.33-.76.42-1.33 1.06-1.83 1.75-.21.3-.41.61-.62.91-.03.04-.04.11-.13.11-.07-.27.01-.53.03-.79.03-.77.18-1.52.46-2.25.48-1.23 1.44-1.85 2.67-2.16 1.01-.25 2.05-.36 3.06-.58.68-.15 1.33-.34 1.91-.74.05-.03.11-.1.17-.05.06.04.02.11 0 .16-.39 1.17-.5 2.4-.74 3.6a8.4 8.4 0 01-.46 1.53c-.46 1.1-1.33 1.71-2.44 2.03-.69.2-1.39.31-2.09.41-.17.02-.28.09-.37.23-.85 1.4-1.48 2.9-2 4.45-.69 2.08-1.17 4.22-1.59 6.38l-.33 1.71c-.04.2-.13.27-.33.27-.49-.01-.98-.01-1.47 0-.19 0-.27-.05-.3-.26-.38-3-.91-5.97-1.72-8.88-.71-2.54-1.61-5-2.84-7.34-.74-1.41-1.59-2.75-2.57-4.01-.05-.04-.12-.07-.08-.19z" fill="#52926C"/></svg>